ISO-10303-21;
HEADER;
/* Generated by software containing ST-Developer
 * from STEP Tools, Inc. (www.steptools.com) 
 */
/* OPTION: using custom renumber hook */

FILE_DESCRIPTION(
/* description */ ('STEP AP242 Edition 2',
'CAx-IF Rec.Pracs.---Representation and Presentation of Product Manufa
cturing Information (PMI)---4.0---2014-10-13',
'CAx-IF Rec.Pracs.---3D Tessellated Geometry---0.4---2014-09-14','2;1',
'CAx-IF Rec.Pracs.---User Defined Attributes---1.5---2016-08-15'),
/* implementation_level */ '2;1');

FILE_NAME(
/* name */ '6974682c8c5d46be4189a7c7',
/* time_stamp */ '2026-01-24T06:35:25Z',
/* author */ (''),
/* organization */ (''),
/* preprocessor_version */ 'ST-DEVELOPER v20',
/* originating_system */ 'ONSHAPE BY PTC INC, 1.209',
/* authorisation */ '  ');

FILE_SCHEMA (('AP242_MANAGED_MODEL_BASED_3D_ENGINEERING_MIM_LF { 1 0 10303 442 3 1 4 }'));
ENDSEC;

DATA;
#10=SHAPE_REPRESENTATION_RELATIONSHIP('','',#956,#11);
#11=ADVANCED_BREP_SHAPE_REPRESENTATION('',(#954),#1774);
#12=ELLIPSE('',#1012,0.00212132034355964,0.0015);
#13=ELLIPSE('',#1014,0.00212132034355965,0.0015);
#14=PLANE('',#965);
#15=PLANE('',#969);
#16=PLANE('',#970);
#17=PLANE('',#971);
#18=PLANE('',#972);
#19=PLANE('',#973);
#20=PLANE('',#977);
#21=PLANE('',#980);
#22=PLANE('',#981);
#23=PLANE('',#982);
#24=PLANE('',#986);
#25=PLANE('',#987);
#26=PLANE('',#988);
#27=PLANE('',#991);
#28=PLANE('',#992);
#29=PLANE('',#997);
#30=PLANE('',#1000);
#31=PLANE('',#1001);
#32=PLANE('',#1002);
#33=PLANE('',#1003);
#34=PLANE('',#1004);
#35=CIRCLE('',#959,0.03);
#36=CIRCLE('',#960,0.03);
#37=CIRCLE('',#961,0.03);
#38=CIRCLE('',#962,0.03);
#39=CIRCLE('',#963,0.03);
#40=CIRCLE('',#964,0.03);
#41=CIRCLE('',#966,0.008);
#42=CIRCLE('',#967,0.008);
#43=CIRCLE('',#968,0.008);
#44=CIRCLE('',#974,0.008);
#45=CIRCLE('',#975,0.008);
#46=CIRCLE('',#976,0.008);
#47=CIRCLE('',#978,0.0015);
#48=CIRCLE('',#979,0.0015);
#49=CIRCLE('',#989,0.0015);
#50=CIRCLE('',#990,0.0015);
#51=CIRCLE('',#993,0.0015);
#52=CIRCLE('',#994,0.0015);
#53=CIRCLE('',#995,0.0015);
#54=CIRCLE('',#996,0.0015);
#55=CIRCLE('',#998,0.0015);
#56=CIRCLE('',#999,0.0015);
#57=CYLINDRICAL_SURFACE('',#958,0.03);
#58=CYLINDRICAL_SURFACE('',#983,0.008);
#59=CYLINDRICAL_SURFACE('',#984,0.008);
#60=CYLINDRICAL_SURFACE('',#985,0.008);
#61=CYLINDRICAL_SURFACE('',#1005,0.0015);
#62=CYLINDRICAL_SURFACE('',#1006,0.0015);
#63=CYLINDRICAL_SURFACE('',#1007,0.0015);
#64=CYLINDRICAL_SURFACE('',#1008,0.0015);
#65=CYLINDRICAL_SURFACE('',#1009,0.0015);
#66=CYLINDRICAL_SURFACE('',#1010,0.0015);
#67=CYLINDRICAL_SURFACE('',#1011,0.0015);
#68=CYLINDRICAL_SURFACE('',#1013,0.0015);
#69=CYLINDRICAL_SURFACE('',#1015,0.0015);
#70=LINE('',#1228,#141);
#71=LINE('',#1235,#142);
#72=LINE('',#1242,#143);
#73=LINE('',#1265,#144);
#74=LINE('',#1277,#145);
#75=LINE('',#1279,#146);
#76=LINE('',#1284,#147);
#77=LINE('',#1288,#148);
#78=LINE('',#1292,#149);
#79=LINE('',#1296,#150);
#80=LINE('',#1300,#151);
#81=LINE('',#1311,#152);
#82=LINE('',#1324,#153);
#83=LINE('',#1331,#154);
#84=LINE('',#1345,#155);
#85=LINE('',#1358,#156);
#86=LINE('',#1376,#157);
#87=LINE('',#1379,#158);
#88=LINE('',#1381,#159);
#89=LINE('',#1383,#160);
#90=LINE('',#1445,#161);
#91=LINE('',#1448,#162);
#92=LINE('',#1450,#163);
#93=LINE('',#1452,#164);
#94=LINE('',#1454,#165);
#95=LINE('',#1457,#166);
#96=LINE('',#1459,#167);
#97=LINE('',#1461,#168);
#98=LINE('',#1463,#169);
#99=LINE('',#1465,#170);
#100=LINE('',#1467,#171);
#101=LINE('',#1469,#172);
#102=LINE('',#1471,#173);
#103=LINE('',#1473,#174);
#104=LINE('',#1475,#175);
#105=LINE('',#1478,#176);
#106=LINE('',#1480,#177);
#107=LINE('',#1482,#178);
#108=LINE('',#1490,#179);
#109=LINE('',#1498,#180);
#110=LINE('',#1500,#181);
#111=LINE('',#1502,#182);
#112=LINE('',#1509,#183);
#113=LINE('',#1536,#184);
#114=LINE('',#1560,#185);
#115=LINE('',#1567,#186);
#116=LINE('',#1570,#187);
#117=LINE('',#1571,#188);
#118=LINE('',#1589,#189);
#119=LINE('',#1591,#190);
#120=LINE('',#1593,#191);
#121=LINE('',#1607,#192);
#122=LINE('',#1626,#193);
#123=LINE('',#1714,#194);
#124=LINE('',#1716,#195);
#125=LINE('',#1718,#196);
#126=LINE('',#1721,#197);
#127=LINE('',#1724,#198);
#128=LINE('',#1728,#199);
#129=LINE('',#1729,#200);
#130=LINE('',#1731,#201);
#131=LINE('',#1737,#202);
#132=LINE('',#1742,#203);
#133=LINE('',#1745,#204);
#134=LINE('',#1749,#205);
#135=LINE('',#1750,#206);
#136=LINE('',#1752,#207);
#137=LINE('',#1754,#208);
#138=LINE('',#1757,#209);
#139=LINE('',#1760,#210);
#140=LINE('',#1761,#211);
#141=VECTOR('',#1018,1.);
#142=VECTOR('',#1019,1.);
#143=VECTOR('',#1020,1.);
#144=VECTOR('',#1021,1.);
#145=VECTOR('',#1022,1.);
#146=VECTOR('',#1025,1.);
#147=VECTOR('',#1028,1.);
#148=VECTOR('',#1031,1.);
#149=VECTOR('',#1034,1.);
#150=VECTOR('',#1037,1.);
#151=VECTOR('',#1040,1.);
#152=VECTOR('',#1043,1.);
#153=VECTOR('',#1044,1.);
#154=VECTOR('',#1045,1.);
#155=VECTOR('',#1046,1.);
#156=VECTOR('',#1047,1.);
#157=VECTOR('',#1056,1.);
#158=VECTOR('',#1057,1.);
#159=VECTOR('',#1058,1.);
#160=VECTOR('',#1059,1.);
#161=VECTOR('',#1062,1.);
#162=VECTOR('',#1063,1.);
#163=VECTOR('',#1064,1.);
#164=VECTOR('',#1065,1.);
#165=VECTOR('',#1068,1.);
#166=VECTOR('',#1069,1.);
#167=VECTOR('',#1070,1.);
#168=VECTOR('',#1071,1.);
#169=VECTOR('',#1074,1.);
#170=VECTOR('',#1075,1.);
#171=VECTOR('',#1076,1.);
#172=VECTOR('',#1079,1.);
#173=VECTOR('',#1080,1.);
#174=VECTOR('',#1081,1.);
#175=VECTOR('',#1084,1.);
#176=VECTOR('',#1085,1.);
#177=VECTOR('',#1086,1.);
#178=VECTOR('',#1087,1.);
#179=VECTOR('',#1096,1.);
#180=VECTOR('',#1099,1.);
#181=VECTOR('',#1100,1.);
#182=VECTOR('',#1101,1.);
#183=VECTOR('',#1106,1.);
#184=VECTOR('',#1107,1.);
#185=VECTOR('',#1108,1.);
#186=VECTOR('',#1111,1.);
#187=VECTOR('',#1112,1.);
#188=VECTOR('',#1113,1.);
#189=VECTOR('',#1116,1.);
#190=VECTOR('',#1117,1.);
#191=VECTOR('',#1118,1.);
#192=VECTOR('',#1119,1.);
#193=VECTOR('',#1120,1.);
#194=VECTOR('',#1129,1.);
#195=VECTOR('',#1130,1.);
#196=VECTOR('',#1131,1.);
#197=VECTOR('',#1136,1.);
#198=VECTOR('',#1139,1.);
#199=VECTOR('',#1144,1.);
#200=VECTOR('',#1145,1.);
#201=VECTOR('',#1148,1.);
#202=VECTOR('',#1153,1.);
#203=VECTOR('',#1160,1.);
#204=VECTOR('',#1163,1.);
#205=VECTOR('',#1168,1.);
#206=VECTOR('',#1169,1.);
#207=VECTOR('',#1172,1.);
#208=VECTOR('',#1175,1.);
#209=VECTOR('',#1180,1.);
#210=VECTOR('',#1181,1.);
#211=VECTOR('',#1182,1.);
#212=ORIENTED_EDGE('',*,*,#490,.F.);
#213=ORIENTED_EDGE('',*,*,#491,.T.);
#214=ORIENTED_EDGE('',*,*,#492,.T.);
#215=ORIENTED_EDGE('',*,*,#493,.F.);
#216=ORIENTED_EDGE('',*,*,#494,.T.);
#217=ORIENTED_EDGE('',*,*,#495,.F.);
#218=ORIENTED_EDGE('',*,*,#496,.F.);
#219=ORIENTED_EDGE('',*,*,#497,.T.);
#220=ORIENTED_EDGE('',*,*,#498,.T.);
#221=ORIENTED_EDGE('',*,*,#499,.F.);
#222=ORIENTED_EDGE('',*,*,#500,.T.);
#223=ORIENTED_EDGE('',*,*,#501,.T.);
#224=ORIENTED_EDGE('',*,*,#502,.T.);
#225=ORIENTED_EDGE('',*,*,#503,.F.);
#226=ORIENTED_EDGE('',*,*,#504,.F.);
#227=ORIENTED_EDGE('',*,*,#505,.F.);
#228=ORIENTED_EDGE('',*,*,#506,.T.);
#229=ORIENTED_EDGE('',*,*,#507,.T.);
#230=ORIENTED_EDGE('',*,*,#508,.F.);
#231=ORIENTED_EDGE('',*,*,#509,.T.);
#232=ORIENTED_EDGE('',*,*,#510,.T.);
#233=ORIENTED_EDGE('',*,*,#511,.F.);
#234=ORIENTED_EDGE('',*,*,#512,.F.);
#235=ORIENTED_EDGE('',*,*,#513,.T.);
#236=ORIENTED_EDGE('',*,*,#514,.T.);
#237=ORIENTED_EDGE('',*,*,#515,.F.);
#238=ORIENTED_EDGE('',*,*,#516,.T.);
#239=ORIENTED_EDGE('',*,*,#517,.F.);
#240=ORIENTED_EDGE('',*,*,#518,.T.);
#241=ORIENTED_EDGE('',*,*,#519,.F.);
#242=ORIENTED_EDGE('',*,*,#520,.T.);
#243=ORIENTED_EDGE('',*,*,#521,.F.);
#244=ORIENTED_EDGE('',*,*,#522,.T.);
#245=ORIENTED_EDGE('',*,*,#523,.T.);
#246=ORIENTED_EDGE('',*,*,#524,.T.);
#247=ORIENTED_EDGE('',*,*,#525,.T.);
#248=ORIENTED_EDGE('',*,*,#526,.T.);
#249=ORIENTED_EDGE('',*,*,#527,.T.);
#250=ORIENTED_EDGE('',*,*,#528,.F.);
#251=ORIENTED_EDGE('',*,*,#529,.F.);
#252=ORIENTED_EDGE('',*,*,#530,.F.);
#253=ORIENTED_EDGE('',*,*,#531,.F.);
#254=ORIENTED_EDGE('',*,*,#532,.T.);
#255=ORIENTED_EDGE('',*,*,#533,.T.);
#256=ORIENTED_EDGE('',*,*,#534,.T.);
#257=ORIENTED_EDGE('',*,*,#535,.F.);
#258=ORIENTED_EDGE('',*,*,#536,.T.);
#259=ORIENTED_EDGE('',*,*,#531,.T.);
#260=ORIENTED_EDGE('',*,*,#537,.T.);
#261=ORIENTED_EDGE('',*,*,#538,.F.);
#262=ORIENTED_EDGE('',*,*,#518,.F.);
#263=ORIENTED_EDGE('',*,*,#533,.F.);
#264=ORIENTED_EDGE('',*,*,#539,.T.);
#265=ORIENTED_EDGE('',*,*,#540,.F.);
#266=ORIENTED_EDGE('',*,*,#496,.T.);
#267=ORIENTED_EDGE('',*,*,#541,.F.);
#268=ORIENTED_EDGE('',*,*,#542,.T.);
#269=ORIENTED_EDGE('',*,*,#543,.F.);
#270=ORIENTED_EDGE('',*,*,#544,.T.);
#271=ORIENTED_EDGE('',*,*,#545,.T.);
#272=ORIENTED_EDGE('',*,*,#546,.F.);
#273=ORIENTED_EDGE('',*,*,#547,.F.);
#274=ORIENTED_EDGE('',*,*,#548,.T.);
#275=ORIENTED_EDGE('',*,*,#549,.T.);
#276=ORIENTED_EDGE('',*,*,#550,.T.);
#277=ORIENTED_EDGE('',*,*,#551,.F.);
#278=ORIENTED_EDGE('',*,*,#546,.T.);
#279=ORIENTED_EDGE('',*,*,#552,.T.);
#280=ORIENTED_EDGE('',*,*,#553,.T.);
#281=ORIENTED_EDGE('',*,*,#554,.F.);
#282=ORIENTED_EDGE('',*,*,#550,.F.);
#283=ORIENTED_EDGE('',*,*,#555,.T.);
#284=ORIENTED_EDGE('',*,*,#556,.T.);
#285=ORIENTED_EDGE('',*,*,#557,.F.);
#286=ORIENTED_EDGE('',*,*,#558,.T.);
#287=ORIENTED_EDGE('',*,*,#559,.T.);
#288=ORIENTED_EDGE('',*,*,#560,.F.);
#289=ORIENTED_EDGE('',*,*,#561,.F.);
#290=ORIENTED_EDGE('',*,*,#562,.F.);
#291=ORIENTED_EDGE('',*,*,#563,.F.);
#292=ORIENTED_EDGE('',*,*,#564,.T.);
#293=ORIENTED_EDGE('',*,*,#565,.T.);
#294=ORIENTED_EDGE('',*,*,#493,.T.);
#295=ORIENTED_EDGE('',*,*,#566,.T.);
#296=ORIENTED_EDGE('',*,*,#510,.F.);
#297=ORIENTED_EDGE('',*,*,#567,.F.);
#298=ORIENTED_EDGE('',*,*,#568,.T.);
#299=ORIENTED_EDGE('',*,*,#569,.T.);
#300=ORIENTED_EDGE('',*,*,#514,.F.);
#301=ORIENTED_EDGE('',*,*,#570,.T.);
#302=ORIENTED_EDGE('',*,*,#521,.T.);
#303=ORIENTED_EDGE('',*,*,#571,.T.);
#304=ORIENTED_EDGE('',*,*,#527,.F.);
#305=ORIENTED_EDGE('',*,*,#572,.T.);
#306=ORIENTED_EDGE('',*,*,#500,.F.);
#307=ORIENTED_EDGE('',*,*,#573,.F.);
#308=ORIENTED_EDGE('',*,*,#512,.T.);
#309=ORIENTED_EDGE('',*,*,#574,.F.);
#310=ORIENTED_EDGE('',*,*,#544,.F.);
#311=ORIENTED_EDGE('',*,*,#575,.T.);
#312=ORIENTED_EDGE('',*,*,#576,.T.);
#313=ORIENTED_EDGE('',*,*,#577,.T.);
#314=ORIENTED_EDGE('',*,*,#499,.T.);
#315=ORIENTED_EDGE('',*,*,#578,.T.);
#316=ORIENTED_EDGE('',*,*,#579,.T.);
#317=ORIENTED_EDGE('',*,*,#580,.T.);
#318=ORIENTED_EDGE('',*,*,#515,.T.);
#319=ORIENTED_EDGE('',*,*,#570,.F.);
#320=ORIENTED_EDGE('',*,*,#513,.F.);
#321=ORIENTED_EDGE('',*,*,#573,.T.);
#322=ORIENTED_EDGE('',*,*,#581,.F.);
#323=ORIENTED_EDGE('',*,*,#582,.F.);
#324=ORIENTED_EDGE('',*,*,#505,.T.);
#325=ORIENTED_EDGE('',*,*,#583,.T.);
#326=ORIENTED_EDGE('',*,*,#576,.F.);
#327=ORIENTED_EDGE('',*,*,#584,.T.);
#328=ORIENTED_EDGE('',*,*,#581,.T.);
#329=ORIENTED_EDGE('',*,*,#585,.T.);
#330=ORIENTED_EDGE('',*,*,#507,.F.);
#331=ORIENTED_EDGE('',*,*,#586,.F.);
#332=ORIENTED_EDGE('',*,*,#587,.T.);
#333=ORIENTED_EDGE('',*,*,#588,.T.);
#334=ORIENTED_EDGE('',*,*,#587,.F.);
#335=ORIENTED_EDGE('',*,*,#589,.T.);
#336=ORIENTED_EDGE('',*,*,#590,.T.);
#337=ORIENTED_EDGE('',*,*,#591,.T.);
#338=ORIENTED_EDGE('',*,*,#492,.F.);
#339=ORIENTED_EDGE('',*,*,#592,.T.);
#340=ORIENTED_EDGE('',*,*,#593,.T.);
#341=ORIENTED_EDGE('',*,*,#594,.T.);
#342=ORIENTED_EDGE('',*,*,#522,.F.);
#343=ORIENTED_EDGE('',*,*,#574,.T.);
#344=ORIENTED_EDGE('',*,*,#511,.T.);
#345=ORIENTED_EDGE('',*,*,#566,.F.);
#346=ORIENTED_EDGE('',*,*,#590,.F.);
#347=ORIENTED_EDGE('',*,*,#595,.T.);
#348=ORIENTED_EDGE('',*,*,#556,.F.);
#349=ORIENTED_EDGE('',*,*,#596,.T.);
#350=ORIENTED_EDGE('',*,*,#558,.F.);
#351=ORIENTED_EDGE('',*,*,#597,.F.);
#352=ORIENTED_EDGE('',*,*,#553,.F.);
#353=ORIENTED_EDGE('',*,*,#598,.T.);
#354=ORIENTED_EDGE('',*,*,#548,.F.);
#355=ORIENTED_EDGE('',*,*,#599,.F.);
#356=ORIENTED_EDGE('',*,*,#560,.T.);
#357=ORIENTED_EDGE('',*,*,#600,.T.);
#358=ORIENTED_EDGE('',*,*,#528,.T.);
#359=ORIENTED_EDGE('',*,*,#563,.T.);
#360=ORIENTED_EDGE('',*,*,#529,.T.);
#361=ORIENTED_EDGE('',*,*,#562,.T.);
#362=ORIENTED_EDGE('',*,*,#530,.T.);
#363=ORIENTED_EDGE('',*,*,#561,.T.);
#364=ORIENTED_EDGE('',*,*,#504,.T.);
#365=ORIENTED_EDGE('',*,*,#601,.T.);
#366=ORIENTED_EDGE('',*,*,#602,.T.);
#367=ORIENTED_EDGE('',*,*,#603,.F.);
#368=ORIENTED_EDGE('',*,*,#508,.T.);
#369=ORIENTED_EDGE('',*,*,#588,.F.);
#370=ORIENTED_EDGE('',*,*,#591,.F.);
#371=ORIENTED_EDGE('',*,*,#596,.F.);
#372=ORIENTED_EDGE('',*,*,#555,.F.);
#373=ORIENTED_EDGE('',*,*,#549,.F.);
#374=ORIENTED_EDGE('',*,*,#600,.F.);
#375=ORIENTED_EDGE('',*,*,#559,.F.);
#376=ORIENTED_EDGE('',*,*,#598,.F.);
#377=ORIENTED_EDGE('',*,*,#552,.F.);
#378=ORIENTED_EDGE('',*,*,#545,.F.);
#379=ORIENTED_EDGE('',*,*,#577,.F.);
#380=ORIENTED_EDGE('',*,*,#585,.F.);
#381=ORIENTED_EDGE('',*,*,#583,.F.);
#382=ORIENTED_EDGE('',*,*,#543,.T.);
#383=ORIENTED_EDGE('',*,*,#551,.T.);
#384=ORIENTED_EDGE('',*,*,#597,.T.);
#385=ORIENTED_EDGE('',*,*,#557,.T.);
#386=ORIENTED_EDGE('',*,*,#599,.T.);
#387=ORIENTED_EDGE('',*,*,#547,.T.);
#388=ORIENTED_EDGE('',*,*,#554,.T.);
#389=ORIENTED_EDGE('',*,*,#595,.F.);
#390=ORIENTED_EDGE('',*,*,#589,.F.);
#391=ORIENTED_EDGE('',*,*,#586,.T.);
#392=ORIENTED_EDGE('',*,*,#506,.F.);
#393=ORIENTED_EDGE('',*,*,#582,.T.);
#394=ORIENTED_EDGE('',*,*,#584,.F.);
#395=ORIENTED_EDGE('',*,*,#575,.F.);
#396=ORIENTED_EDGE('',*,*,#538,.T.);
#397=ORIENTED_EDGE('',*,*,#604,.T.);
#398=ORIENTED_EDGE('',*,*,#541,.T.);
#399=ORIENTED_EDGE('',*,*,#495,.T.);
#400=ORIENTED_EDGE('',*,*,#605,.T.);
#401=ORIENTED_EDGE('',*,*,#606,.T.);
#402=ORIENTED_EDGE('',*,*,#607,.T.);
#403=ORIENTED_EDGE('',*,*,#519,.T.);
#404=ORIENTED_EDGE('',*,*,#606,.F.);
#405=ORIENTED_EDGE('',*,*,#608,.T.);
#406=ORIENTED_EDGE('',*,*,#564,.F.);
#407=ORIENTED_EDGE('',*,*,#609,.T.);
#408=ORIENTED_EDGE('',*,*,#610,.F.);
#409=ORIENTED_EDGE('',*,*,#611,.T.);
#410=ORIENTED_EDGE('',*,*,#524,.F.);
#411=ORIENTED_EDGE('',*,*,#523,.F.);
#412=ORIENTED_EDGE('',*,*,#594,.F.);
#413=ORIENTED_EDGE('',*,*,#612,.T.);
#414=ORIENTED_EDGE('',*,*,#613,.F.);
#415=ORIENTED_EDGE('',*,*,#614,.T.);
#416=ORIENTED_EDGE('',*,*,#578,.F.);
#417=ORIENTED_EDGE('',*,*,#498,.F.);
#418=ORIENTED_EDGE('',*,*,#497,.F.);
#419=ORIENTED_EDGE('',*,*,#615,.T.);
#420=ORIENTED_EDGE('',*,*,#540,.T.);
#421=ORIENTED_EDGE('',*,*,#616,.T.);
#422=ORIENTED_EDGE('',*,*,#535,.T.);
#423=ORIENTED_EDGE('',*,*,#517,.T.);
#424=ORIENTED_EDGE('',*,*,#516,.F.);
#425=ORIENTED_EDGE('',*,*,#580,.F.);
#426=ORIENTED_EDGE('',*,*,#617,.T.);
#427=ORIENTED_EDGE('',*,*,#618,.T.);
#428=ORIENTED_EDGE('',*,*,#619,.T.);
#429=ORIENTED_EDGE('',*,*,#592,.F.);
#430=ORIENTED_EDGE('',*,*,#491,.F.);
#431=ORIENTED_EDGE('',*,*,#490,.T.);
#432=ORIENTED_EDGE('',*,*,#618,.F.);
#433=ORIENTED_EDGE('',*,*,#620,.T.);
#434=ORIENTED_EDGE('',*,*,#613,.T.);
#435=ORIENTED_EDGE('',*,*,#621,.T.);
#436=ORIENTED_EDGE('',*,*,#503,.T.);
#437=ORIENTED_EDGE('',*,*,#569,.F.);
#438=ORIENTED_EDGE('',*,*,#622,.F.);
#439=ORIENTED_EDGE('',*,*,#601,.F.);
#440=ORIENTED_EDGE('',*,*,#622,.T.);
#441=ORIENTED_EDGE('',*,*,#568,.F.);
#442=ORIENTED_EDGE('',*,*,#623,.F.);
#443=ORIENTED_EDGE('',*,*,#602,.F.);
#444=ORIENTED_EDGE('',*,*,#603,.T.);
#445=ORIENTED_EDGE('',*,*,#623,.T.);
#446=ORIENTED_EDGE('',*,*,#567,.T.);
#447=ORIENTED_EDGE('',*,*,#509,.F.);
#448=ORIENTED_EDGE('',*,*,#624,.T.);
#449=ORIENTED_EDGE('',*,*,#625,.T.);
#450=ORIENTED_EDGE('',*,*,#610,.T.);
#451=ORIENTED_EDGE('',*,*,#626,.T.);
#452=ORIENTED_EDGE('',*,*,#542,.F.);
#453=ORIENTED_EDGE('',*,*,#604,.F.);
#454=ORIENTED_EDGE('',*,*,#537,.F.);
#455=ORIENTED_EDGE('',*,*,#534,.F.);
#456=ORIENTED_EDGE('',*,*,#605,.F.);
#457=ORIENTED_EDGE('',*,*,#494,.F.);
#458=ORIENTED_EDGE('',*,*,#565,.F.);
#459=ORIENTED_EDGE('',*,*,#608,.F.);
#460=ORIENTED_EDGE('',*,*,#571,.F.);
#461=ORIENTED_EDGE('',*,*,#520,.F.);
#462=ORIENTED_EDGE('',*,*,#607,.F.);
#463=ORIENTED_EDGE('',*,*,#609,.F.);
#464=ORIENTED_EDGE('',*,*,#617,.F.);
#465=ORIENTED_EDGE('',*,*,#579,.F.);
#466=ORIENTED_EDGE('',*,*,#614,.F.);
#467=ORIENTED_EDGE('',*,*,#620,.F.);
#468=ORIENTED_EDGE('',*,*,#612,.F.);
#469=ORIENTED_EDGE('',*,*,#593,.F.);
#470=ORIENTED_EDGE('',*,*,#619,.F.);
#471=ORIENTED_EDGE('',*,*,#621,.F.);
#472=ORIENTED_EDGE('',*,*,#536,.F.);
#473=ORIENTED_EDGE('',*,*,#616,.F.);
#474=ORIENTED_EDGE('',*,*,#539,.F.);
#475=ORIENTED_EDGE('',*,*,#532,.F.);
#476=ORIENTED_EDGE('',*,*,#615,.F.);
#477=ORIENTED_EDGE('',*,*,#502,.F.);
#478=ORIENTED_EDGE('',*,*,#627,.F.);
#479=ORIENTED_EDGE('',*,*,#626,.F.);
#480=ORIENTED_EDGE('',*,*,#572,.F.);
#481=ORIENTED_EDGE('',*,*,#526,.F.);
#482=ORIENTED_EDGE('',*,*,#628,.F.);
#483=ORIENTED_EDGE('',*,*,#624,.F.);
#484=ORIENTED_EDGE('',*,*,#627,.T.);
#485=ORIENTED_EDGE('',*,*,#501,.F.);
#486=ORIENTED_EDGE('',*,*,#628,.T.);
#487=ORIENTED_EDGE('',*,*,#525,.F.);
#488=ORIENTED_EDGE('',*,*,#611,.F.);
#489=ORIENTED_EDGE('',*,*,#625,.F.);
#490=EDGE_CURVE('',#629,#630,#725,.F.);
#491=EDGE_CURVE('',#629,#631,#726,.F.);
#492=EDGE_CURVE('',#631,#632,#70,.T.);
#493=EDGE_CURVE('',#633,#632,#727,.T.);
#494=EDGE_CURVE('',#633,#634,#71,.F.);
#495=EDGE_CURVE('',#635,#634,#728,.T.);
#496=EDGE_CURVE('',#630,#635,#72,.T.);
#497=EDGE_CURVE('',#636,#637,#729,.F.);
#498=EDGE_CURVE('',#637,#638,#730,.F.);
#499=EDGE_CURVE('',#639,#638,#73,.T.);
#500=EDGE_CURVE('',#639,#640,#731,.T.);
#501=EDGE_CURVE('',#640,#641,#732,.T.);
#502=EDGE_CURVE('',#641,#636,#74,.T.);
#503=EDGE_CURVE('',#642,#643,#75,.T.);
#504=EDGE_CURVE('',#644,#642,#35,.T.);
#505=EDGE_CURVE('',#645,#644,#76,.T.);
#506=EDGE_CURVE('',#645,#646,#36,.T.);
#507=EDGE_CURVE('',#646,#647,#77,.T.);
#508=EDGE_CURVE('',#648,#647,#37,.T.);
#509=EDGE_CURVE('',#648,#649,#78,.T.);
#510=EDGE_CURVE('',#649,#650,#38,.T.);
#511=EDGE_CURVE('',#651,#650,#79,.T.);
#512=EDGE_CURVE('',#652,#651,#39,.T.);
#513=EDGE_CURVE('',#652,#653,#80,.T.);
#514=EDGE_CURVE('',#653,#643,#40,.T.);
#515=EDGE_CURVE('',#654,#655,#81,.T.);
#516=EDGE_CURVE('',#654,#656,#733,.T.);
#517=EDGE_CURVE('',#657,#656,#734,.F.);
#518=EDGE_CURVE('',#657,#658,#82,.T.);
#519=EDGE_CURVE('',#659,#658,#735,.T.);
#520=EDGE_CURVE('',#659,#660,#83,.T.);
#521=EDGE_CURVE('',#655,#660,#736,.T.);
#522=EDGE_CURVE('',#661,#662,#84,.T.);
#523=EDGE_CURVE('',#662,#663,#737,.T.);
#524=EDGE_CURVE('',#663,#664,#738,.F.);
#525=EDGE_CURVE('',#664,#665,#85,.F.);
#526=EDGE_CURVE('',#665,#666,#739,.T.);
#527=EDGE_CURVE('',#666,#661,#740,.T.);
#528=EDGE_CURVE('',#667,#667,#41,.F.);
#529=EDGE_CURVE('',#668,#668,#42,.F.);
#530=EDGE_CURVE('',#669,#669,#43,.F.);
#531=EDGE_CURVE('',#670,#671,#86,.T.);
#532=EDGE_CURVE('',#670,#672,#87,.T.);
#533=EDGE_CURVE('',#672,#673,#88,.T.);
#534=EDGE_CURVE('',#673,#671,#89,.T.);
#535=EDGE_CURVE('',#674,#657,#741,.F.);
#536=EDGE_CURVE('',#674,#670,#742,.T.);
#537=EDGE_CURVE('',#671,#675,#743,.T.);
#538=EDGE_CURVE('',#658,#675,#744,.T.);
#539=EDGE_CURVE('',#672,#676,#745,.T.);
#540=EDGE_CURVE('',#630,#676,#746,.F.);
#541=EDGE_CURVE('',#677,#635,#747,.T.);
#542=EDGE_CURVE('',#677,#673,#748,.T.);
#543=EDGE_CURVE('',#678,#679,#90,.T.);
#544=EDGE_CURVE('',#678,#680,#91,.T.);
#545=EDGE_CURVE('',#680,#681,#92,.T.);
#546=EDGE_CURVE('',#679,#681,#93,.T.);
#547=EDGE_CURVE('',#682,#683,#94,.T.);
#548=EDGE_CURVE('',#682,#684,#95,.T.);
#549=EDGE_CURVE('',#684,#685,#96,.T.);
#550=EDGE_CURVE('',#685,#683,#97,.T.);
#551=EDGE_CURVE('',#679,#686,#98,.T.);
#552=EDGE_CURVE('',#681,#687,#99,.T.);
#553=EDGE_CURVE('',#687,#686,#100,.F.);
#554=EDGE_CURVE('',#683,#688,#101,.T.);
#555=EDGE_CURVE('',#685,#689,#102,.T.);
#556=EDGE_CURVE('',#689,#688,#103,.F.);
#557=EDGE_CURVE('',#690,#691,#104,.T.);
#558=EDGE_CURVE('',#690,#692,#105,.T.);
#559=EDGE_CURVE('',#692,#693,#106,.T.);
#560=EDGE_CURVE('',#691,#693,#107,.T.);
#561=EDGE_CURVE('',#694,#694,#44,.T.);
#562=EDGE_CURVE('',#695,#695,#45,.T.);
#563=EDGE_CURVE('',#696,#696,#46,.T.);
#564=EDGE_CURVE('',#697,#698,#108,.T.);
#565=EDGE_CURVE('',#698,#633,#47,.F.);
#566=EDGE_CURVE('',#632,#650,#749,.T.);
#567=EDGE_CURVE('',#699,#649,#109,.T.);
#568=EDGE_CURVE('',#699,#700,#110,.T.);
#569=EDGE_CURVE('',#700,#643,#111,.T.);
#570=EDGE_CURVE('',#653,#655,#750,.T.);
#571=EDGE_CURVE('',#660,#697,#48,.F.);
#572=EDGE_CURVE('',#666,#640,#112,.F.);
#573=EDGE_CURVE('',#652,#639,#751,.T.);
#574=EDGE_CURVE('',#661,#651,#752,.T.);
#575=EDGE_CURVE('',#678,#701,#753,.F.);
#576=EDGE_CURVE('',#701,#702,#113,.T.);
#577=EDGE_CURVE('',#702,#680,#754,.T.);
#578=EDGE_CURVE('',#638,#703,#755,.F.);
#579=EDGE_CURVE('',#703,#704,#114,.T.);
#580=EDGE_CURVE('',#704,#654,#756,.T.);
#581=EDGE_CURVE('',#705,#706,#115,.T.);
#582=EDGE_CURVE('',#645,#705,#116,.T.);
#583=EDGE_CURVE('',#644,#706,#117,.T.);
#584=EDGE_CURVE('',#701,#705,#757,.F.);
#585=EDGE_CURVE('',#706,#702,#758,.T.);
#586=EDGE_CURVE('',#707,#646,#118,.T.);
#587=EDGE_CURVE('',#707,#708,#119,.T.);
#588=EDGE_CURVE('',#708,#647,#120,.F.);
#589=EDGE_CURVE('',#707,#709,#759,.F.);
#590=EDGE_CURVE('',#709,#710,#121,.T.);
#591=EDGE_CURVE('',#710,#708,#760,.T.);
#592=EDGE_CURVE('',#631,#711,#761,.F.);
#593=EDGE_CURVE('',#711,#712,#122,.F.);
#594=EDGE_CURVE('',#712,#662,#762,.T.);
#595=EDGE_CURVE('',#709,#688,#763,.F.);
#596=EDGE_CURVE('',#689,#710,#764,.T.);
#597=EDGE_CURVE('',#686,#690,#765,.T.);
#598=EDGE_CURVE('',#687,#692,#766,.T.);
#599=EDGE_CURVE('',#691,#682,#767,.T.);
#600=EDGE_CURVE('',#693,#684,#768,.T.);
#601=EDGE_CURVE('',#642,#713,#123,.T.);
#602=EDGE_CURVE('',#713,#714,#124,.T.);
#603=EDGE_CURVE('',#648,#714,#125,.T.);
#604=EDGE_CURVE('',#675,#677,#126,.F.);
#605=EDGE_CURVE('',#634,#715,#49,.T.);
#606=EDGE_CURVE('',#715,#716,#127,.T.);
#607=EDGE_CURVE('',#716,#659,#50,.T.);
#608=EDGE_CURVE('',#715,#698,#128,.F.);
#609=EDGE_CURVE('',#697,#716,#129,.T.);
#610=EDGE_CURVE('',#717,#718,#130,.T.);
#611=EDGE_CURVE('',#717,#664,#51,.T.);
#612=EDGE_CURVE('',#712,#719,#52,.F.);
#613=EDGE_CURVE('',#720,#719,#131,.T.);
#614=EDGE_CURVE('',#720,#703,#53,.F.);
#615=EDGE_CURVE('',#636,#718,#54,.T.);
#616=EDGE_CURVE('',#676,#674,#132,.F.);
#617=EDGE_CURVE('',#704,#721,#55,.T.);
#618=EDGE_CURVE('',#721,#722,#133,.T.);
#619=EDGE_CURVE('',#722,#711,#56,.T.);
#620=EDGE_CURVE('',#721,#720,#134,.T.);
#621=EDGE_CURVE('',#719,#722,#135,.F.);
#622=EDGE_CURVE('',#713,#700,#136,.T.);
#623=EDGE_CURVE('',#714,#699,#137,.T.);
#624=EDGE_CURVE('',#723,#724,#138,.T.);
#625=EDGE_CURVE('',#724,#717,#139,.F.);
#626=EDGE_CURVE('',#718,#723,#140,.T.);
#627=EDGE_CURVE('',#723,#641,#12,.F.);
#628=EDGE_CURVE('',#724,#665,#13,.F.);
#629=VERTEX_POINT('',#1221);
#630=VERTEX_POINT('',#1222);
#631=VERTEX_POINT('',#1227);
#632=VERTEX_POINT('',#1229);
#633=VERTEX_POINT('',#1234);
#634=VERTEX_POINT('',#1236);
#635=VERTEX_POINT('',#1241);
#636=VERTEX_POINT('',#1258);
#637=VERTEX_POINT('',#1259);
#638=VERTEX_POINT('',#1264);
#639=VERTEX_POINT('',#1266);
#640=VERTEX_POINT('',#1271);
#641=VERTEX_POINT('',#1276);
#642=VERTEX_POINT('',#1280);
#643=VERTEX_POINT('',#1281);
#644=VERTEX_POINT('',#1283);
#645=VERTEX_POINT('',#1285);
#646=VERTEX_POINT('',#1287);
#647=VERTEX_POINT('',#1289);
#648=VERTEX_POINT('',#1291);
#649=VERTEX_POINT('',#1293);
#650=VERTEX_POINT('',#1295);
#651=VERTEX_POINT('',#1297);
#652=VERTEX_POINT('',#1299);
#653=VERTEX_POINT('',#1301);
#654=VERTEX_POINT('',#1312);
#655=VERTEX_POINT('',#1313);
#656=VERTEX_POINT('',#1318);
#657=VERTEX_POINT('',#1323);
#658=VERTEX_POINT('',#1325);
#659=VERTEX_POINT('',#1330);
#660=VERTEX_POINT('',#1332);
#661=VERTEX_POINT('',#1346);
#662=VERTEX_POINT('',#1347);
#663=VERTEX_POINT('',#1352);
#664=VERTEX_POINT('',#1357);
#665=VERTEX_POINT('',#1359);
#666=VERTEX_POINT('',#1364);
#667=VERTEX_POINT('',#1371);
#668=VERTEX_POINT('',#1373);
#669=VERTEX_POINT('',#1375);
#670=VERTEX_POINT('',#1377);
#671=VERTEX_POINT('',#1378);
#672=VERTEX_POINT('',#1380);
#673=VERTEX_POINT('',#1382);
#674=VERTEX_POINT('',#1396);
#675=VERTEX_POINT('',#1409);
#676=VERTEX_POINT('',#1428);
#677=VERTEX_POINT('',#1437);
#678=VERTEX_POINT('',#1446);
#679=VERTEX_POINT('',#1447);
#680=VERTEX_POINT('',#1449);
#681=VERTEX_POINT('',#1451);
#682=VERTEX_POINT('',#1455);
#683=VERTEX_POINT('',#1456);
#684=VERTEX_POINT('',#1458);
#685=VERTEX_POINT('',#1460);
#686=VERTEX_POINT('',#1464);
#687=VERTEX_POINT('',#1466);
#688=VERTEX_POINT('',#1470);
#689=VERTEX_POINT('',#1472);
#690=VERTEX_POINT('',#1476);
#691=VERTEX_POINT('',#1477);
#692=VERTEX_POINT('',#1479);
#693=VERTEX_POINT('',#1481);
#694=VERTEX_POINT('',#1484);
#695=VERTEX_POINT('',#1486);
#696=VERTEX_POINT('',#1488);
#697=VERTEX_POINT('',#1491);
#698=VERTEX_POINT('',#1492);
#699=VERTEX_POINT('',#1499);
#700=VERTEX_POINT('',#1501);
#701=VERTEX_POINT('',#1535);
#702=VERTEX_POINT('',#1537);
#703=VERTEX_POINT('',#1559);
#704=VERTEX_POINT('',#1561);
#705=VERTEX_POINT('',#1568);
#706=VERTEX_POINT('',#1569);
#707=VERTEX_POINT('',#1590);
#708=VERTEX_POINT('',#1592);
#709=VERTEX_POINT('',#1606);
#710=VERTEX_POINT('',#1608);
#711=VERTEX_POINT('',#1625);
#712=VERTEX_POINT('',#1627);
#713=VERTEX_POINT('',#1715);
#714=VERTEX_POINT('',#1717);
#715=VERTEX_POINT('',#1723);
#716=VERTEX_POINT('',#1725);
#717=VERTEX_POINT('',#1732);
#718=VERTEX_POINT('',#1733);
#719=VERTEX_POINT('',#1736);
#720=VERTEX_POINT('',#1738);
#721=VERTEX_POINT('',#1744);
#722=VERTEX_POINT('',#1746);
#723=VERTEX_POINT('',#1758);
#724=VERTEX_POINT('',#1759);
#725=B_SPLINE_CURVE_WITH_KNOTS('',3,(#1214,#1215,#1216,#1217,#1218,#1219,
#1220),.UNSPECIFIED.,.F.,.F.,(4,3,4),(0.733360940614992,0.828682050648663,
1.20996649078335),.PIECEWISE_BEZIER_KNOTS.);
#726=B_SPLINE_CURVE_WITH_KNOTS('',3,(#1223,#1224,#1225,#1226),
 .UNSPECIFIED.,.F.,.F.,(4,4),(2.43866140600674E-14,0.000794291150577569),
 .UNSPECIFIED.);
#727=B_SPLINE_CURVE_WITH_KNOTS('',3,(#1230,#1231,#1232,#1233),
 .UNSPECIFIED.,.F.,.F.,(4,4),(0.733360940614992,0.828682050648663),
 .PIECEWISE_BEZIER_KNOTS.);
#728=B_SPLINE_CURVE_WITH_KNOTS('',3,(#1237,#1238,#1239,#1240),
 .UNSPECIFIED.,.F.,.F.,(4,4),(0.733360940614992,0.828682050648663),
 .PIECEWISE_BEZIER_KNOTS.);
#729=B_SPLINE_CURVE_WITH_KNOTS('',3,(#1251,#1252,#1253,#1254,#1255,#1256,
#1257),.UNSPECIFIED.,.F.,.F.,(4,3,4),(-0.20996649179611,0.171317949351343,
0.266639059638206),.PIECEWISE_BEZIER_KNOTS.);
#730=B_SPLINE_CURVE_WITH_KNOTS('',3,(#1260,#1261,#1262,#1263),
 .UNSPECIFIED.,.F.,.F.,(4,4),(2.41010424158847E-14,0.000794291150576536),
 .UNSPECIFIED.);
#731=B_SPLINE_CURVE_WITH_KNOTS('',3,(#1267,#1268,#1269,#1270),
 .UNSPECIFIED.,.F.,.F.,(4,4),(0.171317949351343,0.266639059638206),
 .PIECEWISE_BEZIER_KNOTS.);
#732=B_SPLINE_CURVE_WITH_KNOTS('',3,(#1272,#1273,#1274,#1275),
 .UNSPECIFIED.,.F.,.F.,(4,4),(2.65846641533E-15,0.000687712873606988),
 .UNSPECIFIED.);
#733=B_SPLINE_CURVE_WITH_KNOTS('',3,(#1314,#1315,#1316,#1317),
 .UNSPECIFIED.,.F.,.F.,(4,4),(2.41010424158847E-14,0.000794291150576536),
 .UNSPECIFIED.);
#734=B_SPLINE_CURVE_WITH_KNOTS('',3,(#1319,#1320,#1321,#1322),
 .UNSPECIFIED.,.F.,.F.,(4,4),(0.171317949351343,0.266639059638206),
 .PIECEWISE_BEZIER_KNOTS.);
#735=B_SPLINE_CURVE_WITH_KNOTS('',3,(#1326,#1327,#1328,#1329),
 .UNSPECIFIED.,.F.,.F.,(4,4),(0.171317949351343,0.266639059638206),
 .PIECEWISE_BEZIER_KNOTS.);
#736=B_SPLINE_CURVE_WITH_KNOTS('',3,(#1333,#1334,#1335,#1336),
 .UNSPECIFIED.,.F.,.F.,(4,4),(0.171317949351343,0.266639059638206),
 .PIECEWISE_BEZIER_KNOTS.);
#737=B_SPLINE_CURVE_WITH_KNOTS('',3,(#1348,#1349,#1350,#1351),
 .UNSPECIFIED.,.F.,.F.,(4,4),(2.43866140600674E-14,0.000794291150577569),
 .UNSPECIFIED.);
#738=B_SPLINE_CURVE_WITH_KNOTS('',3,(#1353,#1354,#1355,#1356),
 .UNSPECIFIED.,.F.,.F.,(4,4),(0.733360940614992,0.828682050648663),
 .PIECEWISE_BEZIER_KNOTS.);
#739=B_SPLINE_CURVE_WITH_KNOTS('',3,(#1360,#1361,#1362,#1363),
 .UNSPECIFIED.,.F.,.F.,(4,4),(0.,0.000687712873609621),.UNSPECIFIED.);
#740=B_SPLINE_CURVE_WITH_KNOTS('',3,(#1365,#1366,#1367,#1368),
 .UNSPECIFIED.,.F.,.F.,(4,4),(0.733360940614992,0.828682050648663),
 .PIECEWISE_BEZIER_KNOTS.);
#741=B_SPLINE_CURVE_WITH_KNOTS('',3,(#1392,#1393,#1394,#1395),
 .UNSPECIFIED.,.F.,.F.,(4,4),(0.266639059638206,0.330722683895176),
 .PIECEWISE_BEZIER_KNOTS.);
#742=B_SPLINE_CURVE_WITH_KNOTS('',3,(#1397,#1398,#1399,#1400,#1401,#1402),
 .UNSPECIFIED.,.F.,.F.,(4,1,1,4),(5.60091268789923E-15,0.00148252619580882,
0.00222378929371043,0.00296505239161204),.UNSPECIFIED.);
#743=B_SPLINE_CURVE_WITH_KNOTS('',3,(#1403,#1404,#1405,#1406,#1407,#1408),
 .UNSPECIFIED.,.F.,.F.,(4,1,1,4),(0.,0.000743798174868016,0.00148759634973603,
0.00297519269947206),.UNSPECIFIED.);
#744=B_SPLINE_CURVE_WITH_KNOTS('',3,(#1410,#1411,#1412,#1413),
 .UNSPECIFIED.,.F.,.F.,(4,4),(0.266639059638206,0.330722683895176),
 .PIECEWISE_BEZIER_KNOTS.);
#745=B_SPLINE_CURVE_WITH_KNOTS('',3,(#1422,#1423,#1424,#1425,#1426,#1427),
 .UNSPECIFIED.,.F.,.F.,(4,1,1,4),(0.,0.00074379817486371,0.00148759634972742,
0.00297519269945484),.UNSPECIFIED.);
#746=B_SPLINE_CURVE_WITH_KNOTS('',3,(#1429,#1430,#1431,#1432),
 .UNSPECIFIED.,.F.,.F.,(4,4),(0.669277316104824,0.733360940614992),
 .PIECEWISE_BEZIER_KNOTS.);
#747=B_SPLINE_CURVE_WITH_KNOTS('',3,(#1433,#1434,#1435,#1436),
 .UNSPECIFIED.,.F.,.F.,(4,4),(0.669277316104824,0.733360940614992),
 .PIECEWISE_BEZIER_KNOTS.);
#748=B_SPLINE_CURVE_WITH_KNOTS('',3,(#1438,#1439,#1440,#1441,#1442,#1443),
 .UNSPECIFIED.,.F.,.F.,(4,1,1,4),(5.61613880460763E-15,0.00148252619580885,
0.00222378929371047,0.00296505239161209),.UNSPECIFIED.);
#749=B_SPLINE_CURVE_WITH_KNOTS('',3,(#1494,#1495,#1496,#1497),
 .UNSPECIFIED.,.F.,.F.,(4,4),(0.828682050648663,1.),
 .PIECEWISE_BEZIER_KNOTS.);
#750=B_SPLINE_CURVE_WITH_KNOTS('',3,(#1503,#1504,#1505,#1506),
 .UNSPECIFIED.,.F.,.F.,(4,4),(0.,0.171317949351343),
 .PIECEWISE_BEZIER_KNOTS.);
#751=B_SPLINE_CURVE_WITH_KNOTS('',3,(#1510,#1511,#1512,#1513),
 .UNSPECIFIED.,.F.,.F.,(4,4),(0.,0.171317949351343),
 .PIECEWISE_BEZIER_KNOTS.);
#752=B_SPLINE_CURVE_WITH_KNOTS('',3,(#1514,#1515,#1516,#1517),
 .UNSPECIFIED.,.F.,.F.,(4,4),(0.828682050648663,1.),
 .PIECEWISE_BEZIER_KNOTS.);
#753=B_SPLINE_CURVE_WITH_KNOTS('',3,(#1526,#1527,#1528,#1529,#1530,#1531,
#1532,#1533,#1534),.UNSPECIFIED.,.F.,.F.,(4,1,1,1,1,1,4),(0.118433129638409,
0.125,0.1875,0.21875,0.25,0.28125,0.30274935889348),.UNSPECIFIED.);
#754=B_SPLINE_CURVE_WITH_KNOTS('',3,(#1538,#1539,#1540,#1541,#1542,#1543,
#1544,#1545,#1546),.UNSPECIFIED.,.F.,.F.,(4,1,1,1,1,1,4),(0.118433129638409,
0.125,0.1875,0.21875,0.25,0.28125,0.30274935889348),.UNSPECIFIED.);
#755=B_SPLINE_CURVE_WITH_KNOTS('',3,(#1555,#1556,#1557,#1558),
 .UNSPECIFIED.,.F.,.F.,(4,4),(0.,0.000247626631954964),.UNSPECIFIED.);
#756=B_SPLINE_CURVE_WITH_KNOTS('',3,(#1562,#1563,#1564,#1565),
 .UNSPECIFIED.,.F.,.F.,(4,4),(0.,0.000247626631954964),.UNSPECIFIED.);
#757=B_SPLINE_CURVE_WITH_KNOTS('',3,(#1580,#1581,#1582,#1583),
 .UNSPECIFIED.,.F.,.F.,(4,4),(0.0664560566012034,0.118433129638409),
 .PIECEWISE_BEZIER_KNOTS.);
#758=B_SPLINE_CURVE_WITH_KNOTS('',3,(#1584,#1585,#1586,#1587),
 .UNSPECIFIED.,.F.,.F.,(4,4),(0.0664560566012034,0.118433129638409),
 .PIECEWISE_BEZIER_KNOTS.);
#759=B_SPLINE_CURVE_WITH_KNOTS('',3,(#1602,#1603,#1604,#1605),
 .UNSPECIFIED.,.F.,.F.,(4,4),(0.881566870361591,0.933543943361521),
 .PIECEWISE_BEZIER_KNOTS.);
#760=B_SPLINE_CURVE_WITH_KNOTS('',3,(#1609,#1610,#1611,#1612),
 .UNSPECIFIED.,.F.,.F.,(4,4),(0.881566870361591,0.933543943361521),
 .PIECEWISE_BEZIER_KNOTS.);
#761=B_SPLINE_CURVE_WITH_KNOTS('',3,(#1621,#1622,#1623,#1624),
 .UNSPECIFIED.,.F.,.F.,(4,4),(0.,0.000247626631954892),.UNSPECIFIED.);
#762=B_SPLINE_CURVE_WITH_KNOTS('',3,(#1628,#1629,#1630,#1631),
 .UNSPECIFIED.,.F.,.F.,(4,4),(0.,0.000247626631954892),.UNSPECIFIED.);
#763=B_SPLINE_CURVE_WITH_KNOTS('',3,(#1640,#1641,#1642,#1643,#1644,#1645,
#1646,#1647,#1648),.UNSPECIFIED.,.F.,.F.,(4,1,1,1,1,1,4),(0.697250641106522,
0.71875,0.75,0.78125,0.8125,0.875,0.881566870361591),.UNSPECIFIED.);
#764=B_SPLINE_CURVE_WITH_KNOTS('',3,(#1649,#1650,#1651,#1652,#1653,#1654,
#1655,#1656,#1657),.UNSPECIFIED.,.F.,.F.,(4,1,1,1,1,1,4),(0.697250641106522,
0.71875,0.75,0.78125,0.8125,0.875,0.881566870361591),.UNSPECIFIED.);
#765=B_SPLINE_CURVE_WITH_KNOTS('',3,(#1666,#1667,#1668,#1669,#1670,#1671,
#1672,#1673,#1674),.UNSPECIFIED.,.F.,.F.,(4,1,1,1,1,1,4),(0.118433129638409,
0.125,0.1875,0.21875,0.25,0.28125,0.30274935889348),.UNSPECIFIED.);
#766=B_SPLINE_CURVE_WITH_KNOTS('',3,(#1675,#1676,#1677,#1678,#1679,#1680,
#1681,#1682,#1683),.UNSPECIFIED.,.F.,.F.,(4,1,1,1,1,1,4),(0.118433129638409,
0.125,0.1875,0.21875,0.25,0.28125,0.30274935889348),.UNSPECIFIED.);
#767=B_SPLINE_CURVE_WITH_KNOTS('',3,(#1692,#1693,#1694,#1695,#1696,#1697,
#1698,#1699,#1700),.UNSPECIFIED.,.F.,.F.,(4,1,1,1,1,1,4),(0.697250641106522,
0.71875,0.75,0.78125,0.8125,0.875,0.881566870361591),.UNSPECIFIED.);
#768=B_SPLINE_CURVE_WITH_KNOTS('',3,(#1701,#1702,#1703,#1704,#1705,#1706,
#1707,#1708,#1709),.UNSPECIFIED.,.F.,.F.,(4,1,1,1,1,1,4),(0.697250641106522,
0.71875,0.75,0.78125,0.8125,0.875,0.881566870361591),.UNSPECIFIED.);
#769=EDGE_LOOP('',(#212,#213,#214,#215,#216,#217,#218));
#770=EDGE_LOOP('',(#219,#220,#221,#222,#223,#224));
#771=EDGE_LOOP('',(#225,#226,#227,#228,#229,#230,#231,#232,#233,#234,#235,
#236));
#772=EDGE_LOOP('',(#237,#238,#239,#240,#241,#242,#243));
#773=EDGE_LOOP('',(#244,#245,#246,#247,#248,#249));
#774=EDGE_LOOP('',(#250));
#775=EDGE_LOOP('',(#251));
#776=EDGE_LOOP('',(#252));
#777=EDGE_LOOP('',(#253,#254,#255,#256));
#778=EDGE_LOOP('',(#257,#258,#259,#260,#261,#262));
#779=EDGE_LOOP('',(#263,#264,#265,#266,#267,#268));
#780=EDGE_LOOP('',(#269,#270,#271,#272));
#781=EDGE_LOOP('',(#273,#274,#275,#276));
#782=EDGE_LOOP('',(#277,#278,#279,#280));
#783=EDGE_LOOP('',(#281,#282,#283,#284));
#784=EDGE_LOOP('',(#285,#286,#287,#288));
#785=EDGE_LOOP('',(#289));
#786=EDGE_LOOP('',(#290));
#787=EDGE_LOOP('',(#291));
#788=EDGE_LOOP('',(#292,#293,#294,#295,#296,#297,#298,#299,#300,#301,#302,
#303));
#789=EDGE_LOOP('',(#304,#305,#306,#307,#308,#309));
#790=EDGE_LOOP('',(#310,#311,#312,#313));
#791=EDGE_LOOP('',(#314,#315,#316,#317,#318,#319,#320,#321));
#792=EDGE_LOOP('',(#322,#323,#324,#325));
#793=EDGE_LOOP('',(#326,#327,#328,#329));
#794=EDGE_LOOP('',(#330,#331,#332,#333));
#795=EDGE_LOOP('',(#334,#335,#336,#337));
#796=EDGE_LOOP('',(#338,#339,#340,#341,#342,#343,#344,#345));
#797=EDGE_LOOP('',(#346,#347,#348,#349));
#798=EDGE_LOOP('',(#350,#351,#352,#353));
#799=EDGE_LOOP('',(#354,#355,#356,#357));
#800=EDGE_LOOP('',(#358));
#801=EDGE_LOOP('',(#359));
#802=EDGE_LOOP('',(#360));
#803=EDGE_LOOP('',(#361));
#804=EDGE_LOOP('',(#362));
#805=EDGE_LOOP('',(#363));
#806=EDGE_LOOP('',(#364,#365,#366,#367,#368,#369,#370,#371,#372,#373,#374,
#375,#376,#377,#378,#379,#380,#381));
#807=EDGE_LOOP('',(#382,#383,#384,#385,#386,#387,#388,#389,#390,#391,#392,
#393,#394,#395));
#808=EDGE_LOOP('',(#396,#397,#398,#399,#400,#401,#402,#403));
#809=EDGE_LOOP('',(#404,#405,#406,#407));
#810=EDGE_LOOP('',(#408,#409,#410,#411,#412,#413,#414,#415,#416,#417,#418,
#419));
#811=EDGE_LOOP('',(#420,#421,#422,#423,#424,#425,#426,#427,#428,#429,#430,
#431));
#812=EDGE_LOOP('',(#432,#433,#434,#435));
#813=EDGE_LOOP('',(#436,#437,#438,#439));
#814=EDGE_LOOP('',(#440,#441,#442,#443));
#815=EDGE_LOOP('',(#444,#445,#446,#447));
#816=EDGE_LOOP('',(#448,#449,#450,#451));
#817=EDGE_LOOP('',(#452,#453,#454,#455));
#818=EDGE_LOOP('',(#456,#457,#458,#459));
#819=EDGE_LOOP('',(#460,#461,#462,#463));
#820=EDGE_LOOP('',(#464,#465,#466,#467));
#821=EDGE_LOOP('',(#468,#469,#470,#471));
#822=EDGE_LOOP('',(#472,#473,#474,#475));
#823=EDGE_LOOP('',(#476,#477,#478,#479));
#824=EDGE_LOOP('',(#480,#481,#482,#483,#484,#485));
#825=EDGE_LOOP('',(#486,#487,#488,#489));
#826=FACE_BOUND('',#769,.T.);
#827=FACE_BOUND('',#770,.T.);
#828=FACE_BOUND('',#771,.T.);
#829=FACE_BOUND('',#772,.T.);
#830=FACE_BOUND('',#773,.T.);
#831=FACE_BOUND('',#774,.T.);
#832=FACE_BOUND('',#775,.T.);
#833=FACE_BOUND('',#776,.T.);
#834=FACE_BOUND('',#777,.T.);
#835=FACE_BOUND('',#778,.T.);
#836=FACE_BOUND('',#779,.T.);
#837=FACE_BOUND('',#780,.T.);
#838=FACE_BOUND('',#781,.T.);
#839=FACE_BOUND('',#782,.T.);
#840=FACE_BOUND('',#783,.T.);
#841=FACE_BOUND('',#784,.T.);
#842=FACE_BOUND('',#785,.T.);
#843=FACE_BOUND('',#786,.T.);
#844=FACE_BOUND('',#787,.T.);
#845=FACE_BOUND('',#788,.T.);
#846=FACE_BOUND('',#789,.T.);
#847=FACE_BOUND('',#790,.T.);
#848=FACE_BOUND('',#791,.T.);
#849=FACE_BOUND('',#792,.T.);
#850=FACE_BOUND('',#793,.T.);
#851=FACE_BOUND('',#794,.T.);
#852=FACE_BOUND('',#795,.T.);
#853=FACE_BOUND('',#796,.T.);
#854=FACE_BOUND('',#797,.T.);
#855=FACE_BOUND('',#798,.T.);
#856=FACE_BOUND('',#799,.T.);
#857=FACE_BOUND('',#800,.T.);
#858=FACE_BOUND('',#801,.T.);
#859=FACE_BOUND('',#802,.T.);
#860=FACE_BOUND('',#803,.T.);
#861=FACE_BOUND('',#804,.T.);
#862=FACE_BOUND('',#805,.T.);
#863=FACE_BOUND('',#806,.T.);
#864=FACE_BOUND('',#807,.T.);
#865=FACE_BOUND('',#808,.T.);
#866=FACE_BOUND('',#809,.T.);
#867=FACE_BOUND('',#810,.T.);
#868=FACE_BOUND('',#811,.T.);
#869=FACE_BOUND('',#812,.T.);
#870=FACE_BOUND('',#813,.T.);
#871=FACE_BOUND('',#814,.T.);
#872=FACE_BOUND('',#815,.T.);
#873=FACE_BOUND('',#816,.T.);
#874=FACE_BOUND('',#817,.T.);
#875=FACE_BOUND('',#818,.T.);
#876=FACE_BOUND('',#819,.T.);
#877=FACE_BOUND('',#820,.T.);
#878=FACE_BOUND('',#821,.T.);
#879=FACE_BOUND('',#822,.T.);
#880=FACE_BOUND('',#823,.T.);
#881=FACE_BOUND('',#824,.T.);
#882=FACE_BOUND('',#825,.T.);
#883=B_SPLINE_SURFACE_WITH_KNOTS('',3,1,((#1206,#1207),(#1208,#1209),(#1210,
#1211),(#1212,#1213)),.SURF_OF_LINEAR_EXTRUSION.,.F.,.F.,.F.,(4,4),(2,2),
(0.733360940614992,0.828682050648663),(0.,1.),.PIECEWISE_BEZIER_KNOTS.);
#884=B_SPLINE_SURFACE_WITH_KNOTS('',3,1,((#1243,#1244),(#1245,#1246),(#1247,
#1248),(#1249,#1250)),.SURF_OF_LINEAR_EXTRUSION.,.F.,.F.,.F.,(4,4),(2,2),
(0.171317949351343,0.200111329571298),(0.,1.),.PIECEWISE_BEZIER_KNOTS.);
#885=B_SPLINE_SURFACE_WITH_KNOTS('',3,1,((#1303,#1304),(#1305,#1306),(#1307,
#1308),(#1309,#1310)),.SURF_OF_LINEAR_EXTRUSION.,.F.,.F.,.F.,(4,4),(2,2),
(0.171317949351343,0.266639059638206),(0.,1.),.PIECEWISE_BEZIER_KNOTS.);
#886=B_SPLINE_SURFACE_WITH_KNOTS('',3,1,((#1337,#1338),(#1339,#1340),(#1341,
#1342),(#1343,#1344)),.SURF_OF_LINEAR_EXTRUSION.,.F.,.F.,.F.,(4,4),(2,2),
(0.799888670428702,0.828682050648663),(0.,1.),.PIECEWISE_BEZIER_KNOTS.);
#887=B_SPLINE_SURFACE_WITH_KNOTS('',3,1,((#1384,#1385),(#1386,#1387),(#1388,
#1389),(#1390,#1391)),.SURF_OF_LINEAR_EXTRUSION.,.F.,.F.,.F.,(4,4),(2,2),
(0.266639059638206,0.330722683895176),(0.,1.),.PIECEWISE_BEZIER_KNOTS.);
#888=B_SPLINE_SURFACE_WITH_KNOTS('',3,1,((#1414,#1415),(#1416,#1417),(#1418,
#1419),(#1420,#1421)),.SURF_OF_LINEAR_EXTRUSION.,.F.,.F.,.F.,(4,4),(2,2),
(0.669277316104824,0.733360940614992),(0.,1.),.PIECEWISE_BEZIER_KNOTS.);
#889=B_SPLINE_SURFACE_WITH_KNOTS('',3,1,((#1518,#1519),(#1520,#1521),(#1522,
#1523),(#1524,#1525)),.SURF_OF_LINEAR_EXTRUSION.,.F.,.F.,.F.,(4,4),(2,2),
(0.118433129638409,0.14981601956437),(0.,1.),.PIECEWISE_BEZIER_KNOTS.);
#890=B_SPLINE_SURFACE_WITH_KNOTS('',3,1,((#1547,#1548),(#1549,#1550),(#1551,
#1552),(#1553,#1554)),.SURF_OF_LINEAR_EXTRUSION.,.F.,.F.,.F.,(4,4),(2,2),
(0.,0.171317949351343),(0.,1.),.PIECEWISE_BEZIER_KNOTS.);
#891=B_SPLINE_SURFACE_WITH_KNOTS('',3,1,((#1572,#1573),(#1574,#1575),(#1576,
#1577),(#1578,#1579)),.SURF_OF_LINEAR_EXTRUSION.,.F.,.F.,.F.,(4,4),(2,2),
(0.0664560566012034,0.118433129638409),(0.,1.),.PIECEWISE_BEZIER_KNOTS.);
#892=B_SPLINE_SURFACE_WITH_KNOTS('',3,1,((#1594,#1595),(#1596,#1597),(#1598,
#1599),(#1600,#1601)),.SURF_OF_LINEAR_EXTRUSION.,.F.,.F.,.F.,(4,4),(2,2),
(0.881566870361591,0.933543943361521),(0.,1.),.PIECEWISE_BEZIER_KNOTS.);
#893=B_SPLINE_SURFACE_WITH_KNOTS('',3,1,((#1613,#1614),(#1615,#1616),(#1617,
#1618),(#1619,#1620)),.SURF_OF_LINEAR_EXTRUSION.,.F.,.F.,.F.,(4,4),(2,2),
(0.828682050648663,1.),(0.,1.),.PIECEWISE_BEZIER_KNOTS.);
#894=B_SPLINE_SURFACE_WITH_KNOTS('',3,1,((#1632,#1633),(#1634,#1635),(#1636,
#1637),(#1638,#1639)),.SURF_OF_LINEAR_EXTRUSION.,.F.,.F.,.F.,(4,4),(2,2),
(0.850183979938823,0.881566870361591),(0.,1.),.PIECEWISE_BEZIER_KNOTS.);
#895=B_SPLINE_SURFACE_WITH_KNOTS('',3,1,((#1658,#1659),(#1660,#1661),(#1662,
#1663),(#1664,#1665)),.SURF_OF_LINEAR_EXTRUSION.,.F.,.F.,.F.,(4,4),(2,2),
(0.198196794200368,0.30274935889348),(0.,1.),.PIECEWISE_BEZIER_KNOTS.);
#896=B_SPLINE_SURFACE_WITH_KNOTS('',3,1,((#1684,#1685),(#1686,#1687),(#1688,
#1689),(#1690,#1691)),.SURF_OF_LINEAR_EXTRUSION.,.F.,.F.,.F.,(4,4),(2,2),
(0.697250641106522,0.801803205944275),(0.,1.),.PIECEWISE_BEZIER_KNOTS.);
#897=ADVANCED_FACE('',(#826),#883,.T.);
#898=ADVANCED_FACE('',(#827),#884,.T.);
#899=ADVANCED_FACE('',(#828),#57,.F.);
#900=ADVANCED_FACE('',(#829),#885,.T.);
#901=ADVANCED_FACE('',(#830),#886,.T.);
#902=ADVANCED_FACE('',(#831,#832,#833,#834),#14,.F.);
#903=ADVANCED_FACE('',(#835),#887,.T.);
#904=ADVANCED_FACE('',(#836),#888,.T.);
#905=ADVANCED_FACE('',(#837),#15,.T.);
#906=ADVANCED_FACE('',(#838),#16,.T.);
#907=ADVANCED_FACE('',(#839),#17,.T.);
#908=ADVANCED_FACE('',(#840),#18,.T.);
#909=ADVANCED_FACE('',(#841,#842,#843,#844),#19,.T.);
#910=ADVANCED_FACE('',(#845),#20,.F.);
#911=ADVANCED_FACE('',(#846),#21,.T.);
#912=ADVANCED_FACE('',(#847),#889,.F.);
#913=ADVANCED_FACE('',(#848),#890,.T.);
#914=ADVANCED_FACE('',(#849),#22,.F.);
#915=ADVANCED_FACE('',(#850),#891,.F.);
#916=ADVANCED_FACE('',(#851),#23,.F.);
#917=ADVANCED_FACE('',(#852),#892,.F.);
#918=ADVANCED_FACE('',(#853),#893,.T.);
#919=ADVANCED_FACE('',(#854),#894,.F.);
#920=ADVANCED_FACE('',(#855),#895,.F.);
#921=ADVANCED_FACE('',(#856),#896,.F.);
#922=ADVANCED_FACE('',(#857,#858),#58,.F.);
#923=ADVANCED_FACE('',(#859,#860),#59,.F.);
#924=ADVANCED_FACE('',(#861,#862),#60,.F.);
#925=ADVANCED_FACE('',(#863),#24,.F.);
#926=ADVANCED_FACE('',(#864),#25,.T.);
#927=ADVANCED_FACE('',(#865),#26,.F.);
#928=ADVANCED_FACE('',(#866),#27,.F.);
#929=ADVANCED_FACE('',(#867),#28,.T.);
#930=ADVANCED_FACE('',(#868),#29,.F.);
#931=ADVANCED_FACE('',(#869),#30,.F.);
#932=ADVANCED_FACE('',(#870),#31,.T.);
#933=ADVANCED_FACE('',(#871),#32,.T.);
#934=ADVANCED_FACE('',(#872),#33,.F.);
#935=ADVANCED_FACE('',(#873),#34,.F.);
#936=ADVANCED_FACE('',(#874),#61,.T.);
#937=ADVANCED_FACE('',(#875),#62,.T.);
#938=ADVANCED_FACE('',(#876),#63,.T.);
#939=ADVANCED_FACE('',(#877),#64,.T.);
#940=ADVANCED_FACE('',(#878),#65,.T.);
#941=ADVANCED_FACE('',(#879),#66,.T.);
#942=ADVANCED_FACE('',(#880),#67,.T.);
#943=ADVANCED_FACE('',(#881),#68,.T.);
#944=ADVANCED_FACE('',(#882),#69,.T.);
#945=CLOSED_SHELL('',(#897,#898,#899,#900,#901,#902,#903,#904,#905,#906,
#907,#908,#909,#910,#911,#912,#913,#914,#915,#916,#917,#918,#919,#920,#921,
#922,#923,#924,#925,#926,#927,#928,#929,#930,#931,#932,#933,#934,#935,#936,
#937,#938,#939,#940,#941,#942,#943,#944));
#946=STYLED_ITEM('',(#947),#954);
#947=PRESENTATION_STYLE_ASSIGNMENT((#948));
#948=SURFACE_STYLE_USAGE(.BOTH.,#949);
#949=SURFACE_SIDE_STYLE('',(#950));
#950=SURFACE_STYLE_FILL_AREA(#951);
#951=FILL_AREA_STYLE('',(#952));
#952=FILL_AREA_STYLE_COLOUR('',#953);
#953=COLOUR_RGB('',0.231372549019608,0.380392156862745,0.705882352941177);
#954=MANIFOLD_SOLID_BREP('button_holder',#945);
#955=SHAPE_DEFINITION_REPRESENTATION(#1779,#956);
#956=SHAPE_REPRESENTATION('button_holder',(#957),#1774);
#957=AXIS2_PLACEMENT_3D('',#1205,#1016,#1017);
#958=AXIS2_PLACEMENT_3D('',#1278,#1023,#1024);
#959=AXIS2_PLACEMENT_3D('',#1282,#1026,#1027);
#960=AXIS2_PLACEMENT_3D('',#1286,#1029,#1030);
#961=AXIS2_PLACEMENT_3D('',#1290,#1032,#1033);
#962=AXIS2_PLACEMENT_3D('',#1294,#1035,#1036);
#963=AXIS2_PLACEMENT_3D('',#1298,#1038,#1039);
#964=AXIS2_PLACEMENT_3D('',#1302,#1041,#1042);
#965=AXIS2_PLACEMENT_3D('',#1369,#1048,#1049);
#966=AXIS2_PLACEMENT_3D('',#1370,#1050,#1051);
#967=AXIS2_PLACEMENT_3D('',#1372,#1052,#1053);
#968=AXIS2_PLACEMENT_3D('',#1374,#1054,#1055);
#969=AXIS2_PLACEMENT_3D('',#1444,#1060,#1061);
#970=AXIS2_PLACEMENT_3D('',#1453,#1066,#1067);
#971=AXIS2_PLACEMENT_3D('',#1462,#1072,#1073);
#972=AXIS2_PLACEMENT_3D('',#1468,#1077,#1078);
#973=AXIS2_PLACEMENT_3D('',#1474,#1082,#1083);
#974=AXIS2_PLACEMENT_3D('',#1483,#1088,#1089);
#975=AXIS2_PLACEMENT_3D('',#1485,#1090,#1091);
#976=AXIS2_PLACEMENT_3D('',#1487,#1092,#1093);
#977=AXIS2_PLACEMENT_3D('',#1489,#1094,#1095);
#978=AXIS2_PLACEMENT_3D('',#1493,#1097,#1098);
#979=AXIS2_PLACEMENT_3D('',#1507,#1102,#1103);
#980=AXIS2_PLACEMENT_3D('',#1508,#1104,#1105);
#981=AXIS2_PLACEMENT_3D('',#1566,#1109,#1110);
#982=AXIS2_PLACEMENT_3D('',#1588,#1114,#1115);
#983=AXIS2_PLACEMENT_3D('',#1710,#1121,#1122);
#984=AXIS2_PLACEMENT_3D('',#1711,#1123,#1124);
#985=AXIS2_PLACEMENT_3D('',#1712,#1125,#1126);
#986=AXIS2_PLACEMENT_3D('',#1713,#1127,#1128);
#987=AXIS2_PLACEMENT_3D('',#1719,#1132,#1133);
#988=AXIS2_PLACEMENT_3D('',#1720,#1134,#1135);
#989=AXIS2_PLACEMENT_3D('',#1722,#1137,#1138);
#990=AXIS2_PLACEMENT_3D('',#1726,#1140,#1141);
#991=AXIS2_PLACEMENT_3D('',#1727,#1142,#1143);
#992=AXIS2_PLACEMENT_3D('',#1730,#1146,#1147);
#993=AXIS2_PLACEMENT_3D('',#1734,#1149,#1150);
#994=AXIS2_PLACEMENT_3D('',#1735,#1151,#1152);
#995=AXIS2_PLACEMENT_3D('',#1739,#1154,#1155);
#996=AXIS2_PLACEMENT_3D('',#1740,#1156,#1157);
#997=AXIS2_PLACEMENT_3D('',#1741,#1158,#1159);
#998=AXIS2_PLACEMENT_3D('',#1743,#1161,#1162);
#999=AXIS2_PLACEMENT_3D('',#1747,#1164,#1165);
#1000=AXIS2_PLACEMENT_3D('',#1748,#1166,#1167);
#1001=AXIS2_PLACEMENT_3D('',#1751,#1170,#1171);
#1002=AXIS2_PLACEMENT_3D('',#1753,#1173,#1174);
#1003=AXIS2_PLACEMENT_3D('',#1755,#1176,#1177);
#1004=AXIS2_PLACEMENT_3D('',#1756,#1178,#1179);
#1005=AXIS2_PLACEMENT_3D('',#1762,#1183,#1184);
#1006=AXIS2_PLACEMENT_3D('',#1763,#1185,#1186);
#1007=AXIS2_PLACEMENT_3D('',#1764,#1187,#1188);
#1008=AXIS2_PLACEMENT_3D('',#1765,#1189,#1190);
#1009=AXIS2_PLACEMENT_3D('',#1766,#1191,#1192);
#1010=AXIS2_PLACEMENT_3D('',#1767,#1193,#1194);
#1011=AXIS2_PLACEMENT_3D('',#1768,#1195,#1196);
#1012=AXIS2_PLACEMENT_3D('',#1769,#1197,#1198);
#1013=AXIS2_PLACEMENT_3D('',#1770,#1199,#1200);
#1014=AXIS2_PLACEMENT_3D('',#1771,#1201,#1202);
#1015=AXIS2_PLACEMENT_3D('',#1772,#1203,#1204);
#1016=DIRECTION('',(0.,0.,1.));
#1017=DIRECTION('',(1.,0.,0.));
#1018=DIRECTION('',(0.,-1.,0.));
#1019=DIRECTION('',(0.,-1.,0.));
#1020=DIRECTION('',(0.,-1.,0.));
#1021=DIRECTION('',(0.,-1.,0.));
#1022=DIRECTION('',(0.,-1.,0.));
#1023=DIRECTION('',(0.,-1.,0.));
#1024=DIRECTION('',(0.,0.,-1.));
#1025=DIRECTION('',(0.,-1.,0.));
#1026=DIRECTION('',(0.,-1.,0.));
#1027=DIRECTION('',(0.,0.,-1.));
#1028=DIRECTION('',(0.,-1.,0.));
#1029=DIRECTION('',(0.,-1.,0.));
#1030=DIRECTION('',(0.,0.,-1.));
#1031=DIRECTION('',(0.,-1.,0.));
#1032=DIRECTION('',(0.,-1.,0.));
#1033=DIRECTION('',(0.,0.,-1.));
#1034=DIRECTION('',(0.,-1.,0.));
#1035=DIRECTION('',(0.,-1.,0.));
#1036=DIRECTION('',(0.,0.,-1.));
#1037=DIRECTION('',(0.,-1.,0.));
#1038=DIRECTION('',(0.,-1.,0.));
#1039=DIRECTION('',(0.,0.,-1.));
#1040=DIRECTION('',(0.,-1.,0.));
#1041=DIRECTION('',(0.,-1.,0.));
#1042=DIRECTION('',(0.,0.,-1.));
#1043=DIRECTION('',(0.,-1.,0.));
#1044=DIRECTION('',(0.,-1.,0.));
#1045=DIRECTION('',(0.,-1.,0.));
#1046=DIRECTION('',(0.,-1.,0.));
#1047=DIRECTION('',(0.,-1.,0.));
#1048=DIRECTION('',(0.,0.,1.));
#1049=DIRECTION('',(1.,0.,0.));
#1050=DIRECTION('',(0.,0.,1.));
#1051=DIRECTION('',(1.,0.,0.));
#1052=DIRECTION('',(0.,0.,1.));
#1053=DIRECTION('',(1.,0.,0.));
#1054=DIRECTION('',(0.,0.,1.));
#1055=DIRECTION('',(1.,0.,0.));
#1056=DIRECTION('',(0.,-1.,0.));
#1057=DIRECTION('',(1.,1.50845519650157E-16,0.));
#1058=DIRECTION('',(0.,-1.,0.));
#1059=DIRECTION('',(-1.,0.,0.));
#1060=DIRECTION('',(0.,0.,1.));
#1061=DIRECTION('',(1.,0.,0.));
#1062=DIRECTION('',(1.,0.,0.));
#1063=DIRECTION('',(0.,-1.,0.));
#1064=DIRECTION('',(1.,0.,0.));
#1065=DIRECTION('',(1.50845519650157E-16,-1.,0.));
#1066=DIRECTION('',(-1.,-4.95635278850517E-16,0.));
#1067=DIRECTION('',(4.95635278850517E-16,-1.,0.));
#1068=DIRECTION('',(0.,0.,1.));
#1069=DIRECTION('',(0.,-1.,0.));
#1070=DIRECTION('',(0.,0.,1.));
#1071=DIRECTION('',(-4.95635278850517E-16,1.,0.));
#1072=DIRECTION('',(1.,1.50845519650157E-16,0.));
#1073=DIRECTION('',(-1.50845519650157E-16,1.,0.));
#1074=DIRECTION('',(0.,0.,-1.));
#1075=DIRECTION('',(0.,0.,-1.));
#1076=DIRECTION('',(0.,-1.,0.));
#1077=DIRECTION('',(0.,0.,1.));
#1078=DIRECTION('',(1.,0.,0.));
#1079=DIRECTION('',(1.,0.,0.));
#1080=DIRECTION('',(1.,0.,0.));
#1081=DIRECTION('',(0.,-1.,0.));
#1082=DIRECTION('',(0.,0.,1.));
#1083=DIRECTION('',(1.,0.,0.));
#1084=DIRECTION('',(1.,0.,1.83697019872103E-16));
#1085=DIRECTION('',(0.,-1.,0.));
#1086=DIRECTION('',(1.,0.,1.83697019872103E-16));
#1087=DIRECTION('',(0.,-1.,0.));
#1088=DIRECTION('',(0.,0.,1.));
#1089=DIRECTION('',(1.,0.,0.));
#1090=DIRECTION('',(0.,0.,1.));
#1091=DIRECTION('',(1.,0.,0.));
#1092=DIRECTION('',(0.,0.,1.));
#1093=DIRECTION('',(1.,0.,0.));
#1094=DIRECTION('',(0.,1.,0.));
#1095=DIRECTION('',(0.,0.,1.));
#1096=DIRECTION('',(1.,0.,0.));
#1097=DIRECTION('',(0.,1.,0.));
#1098=DIRECTION('',(0.,0.,1.));
#1099=DIRECTION('',(0.,0.,1.));
#1100=DIRECTION('',(-1.,0.,0.));
#1101=DIRECTION('',(0.,0.,1.));
#1102=DIRECTION('',(0.,1.,0.));
#1103=DIRECTION('',(0.,0.,1.));
#1104=DIRECTION('',(-3.85494105772625E-16,1.,0.));
#1105=DIRECTION('',(-1.,-3.85494105772625E-16,0.));
#1106=DIRECTION('',(1.,3.85494105772625E-16,0.));
#1107=DIRECTION('',(0.,-1.,0.));
#1108=DIRECTION('',(0.,-1.,0.));
#1109=DIRECTION('',(-0.95294218063089,7.82964943318062E-26,-0.303152107652981));
#1110=DIRECTION('',(0.303152107652981,-4.47617656429604E-33,-0.95294218063089));
#1111=DIRECTION('',(0.,-1.,0.));
#1112=DIRECTION('',(0.303152107652981,0.,-0.95294218063089));
#1113=DIRECTION('',(0.303152107652981,-4.47617656429604E-33,-0.95294218063089));
#1114=DIRECTION('',(0.952942180633578,-1.24647402184533E-25,-0.303152107644531));
#1115=DIRECTION('',(-0.303152107644531,7.12603844406379E-33,-0.952942180633578));
#1116=DIRECTION('',(0.303152107644531,0.,0.952942180633578));
#1117=DIRECTION('',(0.,-1.,0.));
#1118=DIRECTION('',(-0.303152107644531,7.12603844406379E-33,-0.952942180633578));
#1119=DIRECTION('',(0.,-1.,0.));
#1120=DIRECTION('',(0.,-1.,0.));
#1121=DIRECTION('',(0.,0.,1.));
#1122=DIRECTION('',(1.,0.,0.));
#1123=DIRECTION('',(0.,0.,1.));
#1124=DIRECTION('',(1.,0.,0.));
#1125=DIRECTION('',(0.,0.,1.));
#1126=DIRECTION('',(1.,0.,0.));
#1127=DIRECTION('',(0.,-1.,0.));
#1128=DIRECTION('',(1.,0.,0.));
#1129=DIRECTION('',(0.,0.,-1.));
#1130=DIRECTION('',(1.,0.,0.));
#1131=DIRECTION('',(0.,0.,-1.));
#1132=DIRECTION('',(0.,-1.,0.));
#1133=DIRECTION('',(1.,0.,0.));
#1134=DIRECTION('',(0.,1.,0.));
#1135=DIRECTION('',(0.,0.,1.));
#1136=DIRECTION('',(-1.,0.,0.));
#1137=DIRECTION('',(0.,1.,0.));
#1138=DIRECTION('',(0.,0.,1.));
#1139=DIRECTION('',(-1.,0.,0.));
#1140=DIRECTION('',(0.,1.,0.));
#1141=DIRECTION('',(0.,0.,1.));
#1142=DIRECTION('',(0.,0.,1.));
#1143=DIRECTION('',(1.,0.,0.));
#1144=DIRECTION('',(0.,1.,0.));
#1145=DIRECTION('',(0.,1.,0.));
#1146=DIRECTION('',(3.01691039300313E-16,-1.,0.));
#1147=DIRECTION('',(1.,3.01691039300313E-16,0.));
#1148=DIRECTION('',(-1.,0.,0.));
#1149=DIRECTION('',(3.01691039300313E-16,-1.,0.));
#1150=DIRECTION('',(1.,3.01691039300313E-16,0.));
#1151=DIRECTION('',(3.01691039300313E-16,-1.,0.));
#1152=DIRECTION('',(1.,3.01691039300313E-16,0.));
#1153=DIRECTION('',(1.,3.01691039300313E-16,0.));
#1154=DIRECTION('',(3.01691039300313E-16,-1.,0.));
#1155=DIRECTION('',(1.,3.01691039300313E-16,0.));
#1156=DIRECTION('',(3.01691039300313E-16,-1.,0.));
#1157=DIRECTION('',(1.,3.01691039300313E-16,0.));
#1158=DIRECTION('',(1.50845519650157E-16,-1.,0.));
#1159=DIRECTION('',(1.,1.50845519650157E-16,0.));
#1160=DIRECTION('',(1.,1.50845519650157E-16,0.));
#1161=DIRECTION('',(1.50845519650157E-16,-1.,0.));
#1162=DIRECTION('',(1.,1.50845519650157E-16,0.));
#1163=DIRECTION('',(1.,1.50845519650157E-16,0.));
#1164=DIRECTION('',(1.50845519650157E-16,-1.,0.));
#1165=DIRECTION('',(1.,1.50845519650157E-16,0.));
#1166=DIRECTION('',(0.,0.,1.));
#1167=DIRECTION('',(1.,0.,0.));
#1168=DIRECTION('',(0.,1.,0.));
#1169=DIRECTION('',(0.,1.,0.));
#1170=DIRECTION('',(1.,0.,0.));
#1171=DIRECTION('',(0.,0.,-1.));
#1172=DIRECTION('',(0.,-1.,0.));
#1173=DIRECTION('',(0.,0.,1.));
#1174=DIRECTION('',(1.,0.,0.));
#1175=DIRECTION('',(0.,-1.,0.));
#1176=DIRECTION('',(1.,0.,0.));
#1177=DIRECTION('',(0.,0.,-1.));
#1178=DIRECTION('',(0.,0.,1.));
#1179=DIRECTION('',(1.,0.,0.));
#1180=DIRECTION('',(1.,3.85494105772625E-16,0.));
#1181=DIRECTION('',(0.,1.,0.));
#1182=DIRECTION('',(0.,1.,0.));
#1183=DIRECTION('',(-1.,0.,0.));
#1184=DIRECTION('',(0.,0.,1.));
#1185=DIRECTION('',(0.,-1.,0.));
#1186=DIRECTION('',(0.,0.,-1.));
#1187=DIRECTION('',(0.,-1.,0.));
#1188=DIRECTION('',(0.,0.,-1.));
#1189=DIRECTION('',(0.,-1.,0.));
#1190=DIRECTION('',(0.,0.,-1.));
#1191=DIRECTION('',(0.,-1.,0.));
#1192=DIRECTION('',(0.,0.,-1.));
#1193=DIRECTION('',(1.,1.50845519650157E-16,0.));
#1194=DIRECTION('',(-1.50845519650157E-16,1.,0.));
#1195=DIRECTION('',(0.,-1.,0.));
#1196=DIRECTION('',(0.,0.,-1.));
#1197=DIRECTION('',(-0.707106781186547,-0.707106781186548,0.));
#1198=DIRECTION('',(-0.707106781186548,0.707106781186547,0.));
#1199=DIRECTION('',(-1.,-3.85494105772625E-16,0.));
#1200=DIRECTION('',(3.85494105772625E-16,-1.,0.));
#1201=DIRECTION('',(-0.707106781186548,0.707106781186547,0.));
#1202=DIRECTION('',(-0.707106781186547,-0.707106781186548,0.));
#1203=DIRECTION('',(0.,-1.,0.));
#1204=DIRECTION('',(0.,0.,-1.));
#1205=CARTESIAN_POINT('',(0.,0.,0.));
#1206=CARTESIAN_POINT('',(0.0149999999998502,0.014,-2.01806019811679E-13));
#1207=CARTESIAN_POINT('',(0.0149999999998502,-0.0885,-2.01806019811679E-13));
#1208=CARTESIAN_POINT('',(0.0162528858953588,0.014,0.00168784821938189));
#1209=CARTESIAN_POINT('',(0.0162528858953588,-0.0885,0.00168784821938189));
#1210=CARTESIAN_POINT('',(0.0171954710401609,0.014,0.00364441509832756));
#1211=CARTESIAN_POINT('',(0.0171954710401609,-0.0885,0.00364441509832756));
#1212=CARTESIAN_POINT('',(0.0180000000000087,0.014,0.00573866283609185));
#1213=CARTESIAN_POINT('',(0.0180000000000087,-0.0885,0.00573866283609185));
#1214=CARTESIAN_POINT('',(0.0149999999998502,0.014,-2.01806019811679E-13));
#1215=CARTESIAN_POINT('',(0.0162528858953588,0.014,0.00168784821938189));
#1216=CARTESIAN_POINT('',(0.0171954710401609,0.014,0.00364441509832755));
#1217=CARTESIAN_POINT('',(0.0180000000000086,0.014,0.00573866283609185));
#1218=CARTESIAN_POINT('',(0.0212181158394,0.014,0.014115653787149));
#1219=CARTESIAN_POINT('',(0.0244362316787913,0.014,0.0224926447382063));
#1220=CARTESIAN_POINT('',(0.0276543475181827,0.014,0.0308696356892635));
#1221=CARTESIAN_POINT('',(0.0177078157904518,0.014,0.005));
#1222=CARTESIAN_POINT('',(0.0149999999998502,0.014,-2.01806019811679E-13));
#1223=CARTESIAN_POINT('',(0.0180000000000086,0.014,0.00573866283609185));
#1224=CARTESIAN_POINT('',(0.0179050296793649,0.014,0.00549144814390645));
#1225=CARTESIAN_POINT('',(0.0178077626653449,0.014,0.00524517484619141));
#1226=CARTESIAN_POINT('',(0.0177078157904518,0.014,0.005));
#1227=CARTESIAN_POINT('',(0.018,0.014,0.00573866283606904));
#1228=CARTESIAN_POINT('',(0.018,0.0325,0.00573866283606904));
#1229=CARTESIAN_POINT('',(0.018,-0.0885,0.00573866283606904));
#1230=CARTESIAN_POINT('',(0.0149999999998502,-0.0885,-2.01806019811679E-13));
#1231=CARTESIAN_POINT('',(0.0162528858953588,-0.0885,0.00168784821938189));
#1232=CARTESIAN_POINT('',(0.0171954710401609,-0.0885,0.00364441509832755));
#1233=CARTESIAN_POINT('',(0.0180000000000086,-0.0885,0.00573866283609185));
#1234=CARTESIAN_POINT('',(0.0172283965402256,-0.0885,0.0038821517879985));
#1235=CARTESIAN_POINT('',(0.0172283965402238,-0.0885,0.00388215178799458));
#1236=CARTESIAN_POINT('',(0.0172283965402256,-0.07,0.0038821517879985));
#1237=CARTESIAN_POINT('',(0.0149999999998502,-0.07,-2.01806019811679E-13));
#1238=CARTESIAN_POINT('',(0.0162528858953588,-0.07,0.00168784821938189));
#1239=CARTESIAN_POINT('',(0.0171954710401609,-0.07,0.00364441509832755));
#1240=CARTESIAN_POINT('',(0.0180000000000086,-0.07,0.00573866283609185));
#1241=CARTESIAN_POINT('',(0.0149999999998502,-0.07,-2.01806019811679E-13));
#1242=CARTESIAN_POINT('',(0.015,0.032502,2.74355452700451E-18));
#1243=CARTESIAN_POINT('',(-0.0180000000000087,0.0325,0.00573866283609149));
#1244=CARTESIAN_POINT('',(-0.0180000000000087,0.0305,0.00573866283609149));
#1245=CARTESIAN_POINT('',(-0.0177569781947582,0.0325,0.00510605929877506));
#1246=CARTESIAN_POINT('',(-0.0177569781947582,0.0305,0.00510605929877506));
#1247=CARTESIAN_POINT('',(-0.017501359509572,0.0325,0.00448601839491511));
#1248=CARTESIAN_POINT('',(-0.017501359509572,0.0305,0.00448601839491511));
#1249=CARTESIAN_POINT('',(-0.0172283965402237,0.0325,0.00388215178799378));
#1250=CARTESIAN_POINT('',(-0.0172283965402237,0.0305,0.00388215178799378));
#1251=CARTESIAN_POINT('',(-0.0276543475438273,0.0305,0.0308696357560157));
#1252=CARTESIAN_POINT('',(-0.0244362316958878,0.0305,0.0224926447827077));
#1253=CARTESIAN_POINT('',(-0.0212181158479482,0.0305,0.0141156538093996));
#1254=CARTESIAN_POINT('',(-0.0180000000000087,0.0305,0.00573866283609149));
#1255=CARTESIAN_POINT('',(-0.0171954710380238,0.0305,0.00364441509276447));
#1256=CARTESIAN_POINT('',(-0.0162528858903512,0.0305,0.00168784820898751));
#1257=CARTESIAN_POINT('',(-0.0149999999898662,0.0305,-1.36518730348145E-11));
#1258=CARTESIAN_POINT('',(-0.017228396540224,0.0305,0.00388215178799455));
#1259=CARTESIAN_POINT('',(-0.017707815790452,0.0305,0.005));
#1260=CARTESIAN_POINT('',(-0.0180000000000087,0.0305,0.00573866283609149));
#1261=CARTESIAN_POINT('',(-0.0179050296793649,0.0305,0.00549144814390597));
#1262=CARTESIAN_POINT('',(-0.017807762665345,0.0305,0.00524517484619121));
#1263=CARTESIAN_POINT('',(-0.017707815790452,0.0305,0.00500000000000001));
#1264=CARTESIAN_POINT('',(-0.018,0.0305,0.00573866283606901));
#1265=CARTESIAN_POINT('',(-0.018,0.0325,0.00573866283606901));
#1266=CARTESIAN_POINT('',(-0.018,0.0325,0.00573866283606901));
#1267=CARTESIAN_POINT('',(-0.0180000000000087,0.0325,0.00573866283609149));
#1268=CARTESIAN_POINT('',(-0.0171954710380238,0.0325,0.00364441509276447));
#1269=CARTESIAN_POINT('',(-0.0162528858903512,0.0325,0.00168784820898751));
#1270=CARTESIAN_POINT('',(-0.0149999999898662,0.0325,-1.36518730348145E-11));
#1271=CARTESIAN_POINT('',(-0.0174994724834873,0.0325,0.0045000000000025));
#1272=CARTESIAN_POINT('',(-0.0174994724834863,0.0325,0.0045));
#1273=CARTESIAN_POINT('',(-0.0174078772396927,0.0325,0.00428502746173395));
#1274=CARTESIAN_POINT('',(-0.0173174100385482,0.0324558578884878,0.00407907329471606));
#1275=CARTESIAN_POINT('',(-0.017228396540224,0.0323668443901636,0.00388215178799455));
#1276=CARTESIAN_POINT('',(-0.017228396540224,0.0323668443901636,0.00388215178799455));
#1277=CARTESIAN_POINT('',(-0.017228396540224,0.0325,0.00388215178799455));
#1278=CARTESIAN_POINT('',(-3.46944695195361E-17,0.0325,0.038));
#1279=CARTESIAN_POINT('',(-0.004,0.032502,0.00826786250536299));
#1280=CARTESIAN_POINT('',(-0.004,-0.0685,0.00826786250536299));
#1281=CARTESIAN_POINT('',(-0.004,-0.0885,0.00826786250536299));
#1282=CARTESIAN_POINT('',(-1.21430643318376E-17,-0.0685,0.038));
#1283=CARTESIAN_POINT('',(-0.0181125894431068,-0.0685,0.0140848561855501));
#1284=CARTESIAN_POINT('',(-0.018112589443112,0.0125,0.0140848561855464));
#1285=CARTESIAN_POINT('',(-0.0181125894431068,0.0125,0.0140848561855501));
#1286=CARTESIAN_POINT('',(-1.21430643318376E-17,0.0125,0.038));
#1287=CARTESIAN_POINT('',(0.0181125894430999,0.0125,0.0140848561855525));
#1288=CARTESIAN_POINT('',(0.0181125894430999,0.0125,0.0140848561855526));
#1289=CARTESIAN_POINT('',(0.0181125894430999,-0.0685,0.0140848561855525));
#1290=CARTESIAN_POINT('',(-1.21430643318376E-17,-0.0685,0.038));
#1291=CARTESIAN_POINT('',(0.004,-0.0685,0.00826786250536299));
#1292=CARTESIAN_POINT('',(0.004,0.032502,0.00826786250536299));
#1293=CARTESIAN_POINT('',(0.004,-0.0885,0.00826786250536299));
#1294=CARTESIAN_POINT('',(-3.46944695195361E-17,-0.0885,0.038));
#1295=CARTESIAN_POINT('',(0.0220000000000004,-0.0885,0.0176039219456293));
#1296=CARTESIAN_POINT('',(0.0220000000000004,0.0325,0.0176039219456293));
#1297=CARTESIAN_POINT('',(0.0220000000000004,0.0325,0.0176039219456293));
#1298=CARTESIAN_POINT('',(-3.46944695195361E-17,0.0325,0.038));
#1299=CARTESIAN_POINT('',(-0.0220000000000004,0.0325,0.0176039219456293));
#1300=CARTESIAN_POINT('',(-0.0220000000000004,0.0325,0.0176039219456293));
#1301=CARTESIAN_POINT('',(-0.0220000000000004,-0.0885,0.0176039219456293));
#1302=CARTESIAN_POINT('',(-3.46944695195361E-17,-0.0885,0.038));
#1303=CARTESIAN_POINT('',(-0.0180000000000087,0.014,0.00573866283609149));
#1304=CARTESIAN_POINT('',(-0.0180000000000087,-0.0885,0.00573866283609149));
#1305=CARTESIAN_POINT('',(-0.0171954710380238,0.014,0.00364441509276447));
#1306=CARTESIAN_POINT('',(-0.0171954710380238,-0.0885,0.00364441509276447));
#1307=CARTESIAN_POINT('',(-0.0162528858903512,0.014,0.00168784820898751));
#1308=CARTESIAN_POINT('',(-0.0162528858903512,-0.0885,0.00168784820898751));
#1309=CARTESIAN_POINT('',(-0.0149999999898662,0.014,-1.36518730348145E-11));
#1310=CARTESIAN_POINT('',(-0.0149999999898662,-0.0885,-1.36518730348145E-11));
#1311=CARTESIAN_POINT('',(-0.018,0.0325,0.00573866283606901));
#1312=CARTESIAN_POINT('',(-0.018,0.014,0.00573866283606901));
#1313=CARTESIAN_POINT('',(-0.018,-0.0885,0.00573866283606901));
#1314=CARTESIAN_POINT('',(-0.0180000000000087,0.014,0.00573866283609149));
#1315=CARTESIAN_POINT('',(-0.0179050296793649,0.014,0.00549144814390597));
#1316=CARTESIAN_POINT('',(-0.017807762665345,0.014,0.00524517484619121));
#1317=CARTESIAN_POINT('',(-0.017707815790452,0.014,0.00500000000000001));
#1318=CARTESIAN_POINT('',(-0.017707815790452,0.014,0.005));
#1319=CARTESIAN_POINT('',(-0.0180000000000087,0.014,0.00573866283609149));
#1320=CARTESIAN_POINT('',(-0.0171954710380238,0.014,0.00364441509276447));
#1321=CARTESIAN_POINT('',(-0.0162528858903512,0.014,0.00168784820898751));
#1322=CARTESIAN_POINT('',(-0.0149999999898662,0.014,-1.36518730348145E-11));
#1323=CARTESIAN_POINT('',(-0.0149999999898662,0.014,-1.36518736853358E-11));
#1324=CARTESIAN_POINT('',(-0.015,0.032502,-2.76735606915862E-18));
#1325=CARTESIAN_POINT('',(-0.0149999999898662,-0.07,-1.36518736853358E-11));
#1326=CARTESIAN_POINT('',(-0.0180000000000087,-0.07,0.00573866283609149));
#1327=CARTESIAN_POINT('',(-0.0171954710380238,-0.07,0.00364441509276447));
#1328=CARTESIAN_POINT('',(-0.0162528858903512,-0.07,0.00168784820898751));
#1329=CARTESIAN_POINT('',(-0.0149999999898662,-0.07,-1.36518730348145E-11));
#1330=CARTESIAN_POINT('',(-0.017228396540224,-0.07,0.00388215178799455));
#1331=CARTESIAN_POINT('',(-0.017228396540224,-0.07,0.00388215178799455));
#1332=CARTESIAN_POINT('',(-0.0172283965402257,-0.0885,0.00388215178799847));
#1333=CARTESIAN_POINT('',(-0.0180000000000087,-0.0885,0.00573866283609149));
#1334=CARTESIAN_POINT('',(-0.0171954710380238,-0.0885,0.00364441509276447));
#1335=CARTESIAN_POINT('',(-0.0162528858903512,-0.0885,0.00168784820898751));
#1336=CARTESIAN_POINT('',(-0.0149999999898662,-0.0885,-1.36518730348145E-11));
#1337=CARTESIAN_POINT('',(0.0172283965402235,0.0325,0.00388215178799379));
#1338=CARTESIAN_POINT('',(0.0172283965402235,0.0305,0.00388215178799379));
#1339=CARTESIAN_POINT('',(0.0175013595095719,0.0325,0.00448601839491524));
#1340=CARTESIAN_POINT('',(0.0175013595095719,0.0305,0.00448601839491524));
#1341=CARTESIAN_POINT('',(0.0177569781947581,0.0325,0.0051060592987753));
#1342=CARTESIAN_POINT('',(0.0177569781947581,0.0305,0.0051060592987753));
#1343=CARTESIAN_POINT('',(0.0180000000000086,0.0325,0.00573866283609185));
#1344=CARTESIAN_POINT('',(0.0180000000000086,0.0305,0.00573866283609185));
#1345=CARTESIAN_POINT('',(0.018,0.0325,0.00573866283606904));
#1346=CARTESIAN_POINT('',(0.018,0.0325,0.00573866283606904));
#1347=CARTESIAN_POINT('',(0.018,0.0305,0.00573866283606904));
#1348=CARTESIAN_POINT('',(0.0180000000000086,0.0305,0.00573866283609185));
#1349=CARTESIAN_POINT('',(0.0179050296793649,0.0305,0.00549144814390645));
#1350=CARTESIAN_POINT('',(0.0178077626653449,0.0305,0.00524517484619141));
#1351=CARTESIAN_POINT('',(0.0177078157904518,0.0305,0.005));
#1352=CARTESIAN_POINT('',(0.0177078157904518,0.0305,0.005));
#1353=CARTESIAN_POINT('',(0.0149999999998502,0.0305,-2.01806019811679E-13));
#1354=CARTESIAN_POINT('',(0.0162528858953588,0.0305,0.00168784821938189));
#1355=CARTESIAN_POINT('',(0.0171954710401609,0.0305,0.00364441509832755));
#1356=CARTESIAN_POINT('',(0.0180000000000086,0.0305,0.00573866283609185));
#1357=CARTESIAN_POINT('',(0.0172283965402256,0.0305,0.0038821517879985));
#1358=CARTESIAN_POINT('',(0.0172283965402238,0.0305,0.00388215178799458));
#1359=CARTESIAN_POINT('',(0.0172283965402238,0.0323668443901636,0.00388215178799458));
#1360=CARTESIAN_POINT('',(0.0172283965402238,0.0323668443901636,0.00388215178799458));
#1361=CARTESIAN_POINT('',(0.0173174100385488,0.0324558578884885,0.0040790732947176));
#1362=CARTESIAN_POINT('',(0.0174078772396918,0.0325,0.00428502746173229));
#1363=CARTESIAN_POINT('',(0.0174994724834861,0.0325,0.0045));
#1364=CARTESIAN_POINT('',(0.0174994724834872,0.0325,0.0045000000000025));
#1365=CARTESIAN_POINT('',(0.0149999999998502,0.0325,-2.01806019811679E-13));
#1366=CARTESIAN_POINT('',(0.0162528858953588,0.0325,0.00168784821938189));
#1367=CARTESIAN_POINT('',(0.0171954710401609,0.0325,0.00364441509832755));
#1368=CARTESIAN_POINT('',(0.0180000000000086,0.0325,0.00573866283609185));
#1369=CARTESIAN_POINT('',(4.85722573273506E-17,-0.028,-0.003));
#1370=CARTESIAN_POINT('',(0.,1.62265700887024E-18,-0.003));
#1371=CARTESIAN_POINT('',(0.008,1.62265700887024E-18,-0.003));
#1372=CARTESIAN_POINT('',(0.,-0.028,-0.003));
#1373=CARTESIAN_POINT('',(0.008,-0.028,-0.003));
#1374=CARTESIAN_POINT('',(0.,-0.056,-0.003));
#1375=CARTESIAN_POINT('',(0.008,-0.056,-0.003));
#1376=CARTESIAN_POINT('',(-0.0119999999999896,0.032502,-0.003));
#1377=CARTESIAN_POINT('',(-0.0119999999999896,0.0125,-0.003));
#1378=CARTESIAN_POINT('',(-0.0119999999999896,-0.0685,-0.003));
#1379=CARTESIAN_POINT('',(4.24630137815192E-17,0.0125,-0.003));
#1380=CARTESIAN_POINT('',(0.0120000000000034,0.0125,-0.003));
#1381=CARTESIAN_POINT('',(0.0120000000000034,0.032502,-0.003));
#1382=CARTESIAN_POINT('',(0.0120000000000034,-0.0685,-0.003));
#1383=CARTESIAN_POINT('',(4.85722573273506E-17,-0.0685,-0.003));
#1384=CARTESIAN_POINT('',(-0.0149999999898662,0.014,-1.36518736853358E-11));
#1385=CARTESIAN_POINT('',(-0.0149999999898662,-0.07,-1.36518736853358E-11));
#1386=CARTESIAN_POINT('',(-0.0141576947644849,0.014,-0.00113472694850631));
#1387=CARTESIAN_POINT('',(-0.0141576947644849,-0.07,-0.00113472694850631));
#1388=CARTESIAN_POINT('',(-0.0131751408614059,0.014,-0.00214799933787335));
#1389=CARTESIAN_POINT('',(-0.0131751408614059,-0.07,-0.00214799933787335));
#1390=CARTESIAN_POINT('',(-0.0119999999999896,0.014,-0.00300000000000747));
#1391=CARTESIAN_POINT('',(-0.0119999999999896,-0.07,-0.00300000000000747));
#1392=CARTESIAN_POINT('',(-0.0149999999898662,0.014,-1.36518736853358E-11));
#1393=CARTESIAN_POINT('',(-0.0141576947644849,0.014,-0.00113472694850631));
#1394=CARTESIAN_POINT('',(-0.0131751408614059,0.014,-0.00214799933787335));
#1395=CARTESIAN_POINT('',(-0.0119999999999896,0.014,-0.00300000000000747));
#1396=CARTESIAN_POINT('',(-0.0137288977241645,0.014,-0.001500000000109));
#1397=CARTESIAN_POINT('',(-0.0137288977240523,0.014,-0.0015));
#1398=CARTESIAN_POINT('',(-0.0133795851125276,0.014,-0.00185965766708134));
#1399=CARTESIAN_POINT('',(-0.0128346648781522,0.013820284802235,-0.00235870075075359));
#1400=CARTESIAN_POINT('',(-0.0121872860054418,0.013226299013486,-0.00286566046076383));
#1401=CARTESIAN_POINT('',(-0.0119999999999889,0.0127530276945224,-0.00300000000000795));
#1402=CARTESIAN_POINT('',(-0.0119999999999896,0.0124999999999972,-0.00300000000000747));
#1403=CARTESIAN_POINT('',(-0.0119999999999896,-0.0685,-0.003));
#1404=CARTESIAN_POINT('',(-0.0119999999999896,-0.0687531838048925,-0.003));
#1405=CARTESIAN_POINT('',(-0.0121864771934893,-0.0692246661732137,-0.00286623772864812));
#1406=CARTESIAN_POINT('',(-0.0128331651877787,-0.069819902048759,-0.00236001587833434));
#1407=CARTESIAN_POINT('',(-0.0133798863522028,-0.0699999999999724,-0.0018593475039407));
#1408=CARTESIAN_POINT('',(-0.0137288977241586,-0.07,-0.00150000000011508));
#1409=CARTESIAN_POINT('',(-0.0137288977241645,-0.07,-0.001500000000109));
#1410=CARTESIAN_POINT('',(-0.0149999999898662,-0.07,-1.36518736853358E-11));
#1411=CARTESIAN_POINT('',(-0.0141576947644849,-0.07,-0.00113472694850631));
#1412=CARTESIAN_POINT('',(-0.0131751408614059,-0.07,-0.00214799933787335));
#1413=CARTESIAN_POINT('',(-0.0119999999999896,-0.07,-0.00300000000000747));
#1414=CARTESIAN_POINT('',(0.012,0.014,-0.003));
#1415=CARTESIAN_POINT('',(0.012,-0.07,-0.003));
#1416=CARTESIAN_POINT('',(0.0131751408660547,0.014,-0.00214799933450113));
#1417=CARTESIAN_POINT('',(0.0131751408660547,-0.07,-0.00214799933450113));
#1418=CARTESIAN_POINT('',(0.0141576947722516,0.014,-0.00113472694049602));
#1419=CARTESIAN_POINT('',(0.0141576947722516,-0.07,-0.00113472694049602));
#1420=CARTESIAN_POINT('',(0.0149999999998502,0.014,-2.01806019811679E-13));
#1421=CARTESIAN_POINT('',(0.0149999999998502,-0.07,-2.01806019811679E-13));
#1422=CARTESIAN_POINT('',(0.0120000000000034,0.0125,-0.003));
#1423=CARTESIAN_POINT('',(0.0120000000000034,0.0127531838048895,-0.003));
#1424=CARTESIAN_POINT('',(0.0121864771934832,0.0132246661732152,-0.00286623772864807));
#1425=CARTESIAN_POINT('',(0.0128331651877826,0.0138199020487582,-0.0023600158783343));
#1426=CARTESIAN_POINT('',(0.0133798863522029,0.0139999999999724,-0.00185934750394069));
#1427=CARTESIAN_POINT('',(0.0137288977241587,0.014,-0.00150000000011509));
#1428=CARTESIAN_POINT('',(0.0137288977241646,0.014,-0.001500000000109));
#1429=CARTESIAN_POINT('',(0.012,0.014,-0.003));
#1430=CARTESIAN_POINT('',(0.0131751408660547,0.014,-0.00214799933450113));
#1431=CARTESIAN_POINT('',(0.0141576947722516,0.014,-0.00113472694049602));
#1432=CARTESIAN_POINT('',(0.0149999999998502,0.014,-2.01806019811679E-13));
#1433=CARTESIAN_POINT('',(0.012,-0.07,-0.003));
#1434=CARTESIAN_POINT('',(0.0131751408660547,-0.07,-0.00214799933450113));
#1435=CARTESIAN_POINT('',(0.0141576947722516,-0.07,-0.00113472694049602));
#1436=CARTESIAN_POINT('',(0.0149999999998502,-0.07,-2.01806019811679E-13));
#1437=CARTESIAN_POINT('',(0.0137288977241646,-0.07,-0.001500000000109));
#1438=CARTESIAN_POINT('',(0.0137288977240523,-0.07,-0.0015));
#1439=CARTESIAN_POINT('',(0.0133795851125276,-0.07,-0.00185965766708135));
#1440=CARTESIAN_POINT('',(0.0128346648781553,-0.069820284802235,-0.00235870075075143));
#1441=CARTESIAN_POINT('',(0.0121872860054368,-0.0692262990134858,-0.00286566046076754));
#1442=CARTESIAN_POINT('',(0.0120000000000002,-0.0687530276945226,-0.00299999999999985));
#1443=CARTESIAN_POINT('',(0.012,-0.0685000000000009,-0.003));
#1444=CARTESIAN_POINT('',(4.85722573273506E-17,-0.028,0.008));
#1445=CARTESIAN_POINT('',(4.85722573273506E-17,0.0125,0.008));
#1446=CARTESIAN_POINT('',(-0.0161649832395098,0.0125,0.008));
#1447=CARTESIAN_POINT('',(-0.015,0.0125,0.008));
#1448=CARTESIAN_POINT('',(-0.0161649832412149,0.0325,0.008));
#1449=CARTESIAN_POINT('',(-0.0161649832395098,-0.0685,0.0079999999951206));
#1450=CARTESIAN_POINT('',(4.85722573273506E-17,-0.0685,0.008));
#1451=CARTESIAN_POINT('',(-0.015,-0.0685,0.008));
#1452=CARTESIAN_POINT('',(-0.015,-0.06175,0.008));
#1453=CARTESIAN_POINT('',(0.015,-0.007,0.008));
#1454=CARTESIAN_POINT('',(0.015,0.0125,0.008));
#1455=CARTESIAN_POINT('',(0.0149999999997752,0.0125,0.00502239891417598));
#1456=CARTESIAN_POINT('',(0.015,0.0125,0.008));
#1457=CARTESIAN_POINT('',(0.015,0.0325,0.00502239891467925));
#1458=CARTESIAN_POINT('',(0.0149999999997303,-0.0685,0.00502239891407557));
#1459=CARTESIAN_POINT('',(0.015,-0.0685,0.008));
#1460=CARTESIAN_POINT('',(0.015,-0.0685,0.008));
#1461=CARTESIAN_POINT('',(0.015,-0.007,0.008));
#1462=CARTESIAN_POINT('',(-0.015,-0.06175,0.008));
#1463=CARTESIAN_POINT('',(-0.015,0.0125,0.008));
#1464=CARTESIAN_POINT('',(-0.014999999995146,0.0125,0.00502239890381196));
#1465=CARTESIAN_POINT('',(-0.015,-0.0685,0.008));
#1466=CARTESIAN_POINT('',(-0.014999999995146,-0.0685,0.00502239890381196));
#1467=CARTESIAN_POINT('',(-0.015,0.0325,0.00502239891467893));
#1468=CARTESIAN_POINT('',(4.85722573273506E-17,-0.028,0.008));
#1469=CARTESIAN_POINT('',(4.85722573273506E-17,0.0125,0.008));
#1470=CARTESIAN_POINT('',(0.0161649832395392,0.0125,0.008));
#1471=CARTESIAN_POINT('',(4.85722573273506E-17,-0.0685,0.008));
#1472=CARTESIAN_POINT('',(0.0161649832412148,-0.0685,0.008));
#1473=CARTESIAN_POINT('',(0.0161649832412148,0.0325,0.008));
#1474=CARTESIAN_POINT('',(4.85722573273506E-17,-0.028,0.));
#1475=CARTESIAN_POINT('',(4.68375338513738E-17,0.0125,-1.19007710770429E-20));
#1476=CARTESIAN_POINT('',(-0.0116935839767752,0.0125,-2.15997729923483E-18));
#1477=CARTESIAN_POINT('',(0.0116935839767753,0.0125,2.13617575708075E-18));
#1478=CARTESIAN_POINT('',(-0.0116935839767752,0.0325,-2.15997729923483E-18));
#1479=CARTESIAN_POINT('',(-0.0116935839767752,-0.0685,-2.15997729923483E-18));
#1480=CARTESIAN_POINT('',(4.68375338513738E-17,-0.0685,-1.19007710770429E-20));
#1481=CARTESIAN_POINT('',(0.0116935839767753,-0.0685,2.13617575708075E-18));
#1482=CARTESIAN_POINT('',(0.0116935839767753,0.0325,2.13617575708075E-18));
#1483=CARTESIAN_POINT('',(0.,-0.056,0.));
#1484=CARTESIAN_POINT('',(0.008,-0.056,0.));
#1485=CARTESIAN_POINT('',(0.,-0.028,0.));
#1486=CARTESIAN_POINT('',(0.008,-0.028,0.));
#1487=CARTESIAN_POINT('',(0.,1.62265700887024E-18,0.));
#1488=CARTESIAN_POINT('',(0.008,1.62265700887024E-18,0.));
#1489=CARTESIAN_POINT('',(-0.00575,-0.0885,0.008));
#1490=CARTESIAN_POINT('',(-0.00575,-0.0885,0.003));
#1491=CARTESIAN_POINT('',(-0.0158615521500604,-0.0885,0.003));
#1492=CARTESIAN_POINT('',(0.0158615521500602,-0.0885,0.003));
#1493=CARTESIAN_POINT('',(0.0158615521500602,-0.0885,0.0045));
#1494=CARTESIAN_POINT('',(0.0180000000000086,-0.0885,0.00573866283609185));
#1495=CARTESIAN_POINT('',(0.0194459572653637,-0.0885,0.00950259537675068));
#1496=CARTESIAN_POINT('',(0.0204459673524633,-0.0885,0.0137112627223754));
#1497=CARTESIAN_POINT('',(0.022,-0.0885,0.0176039219456295));
#1498=CARTESIAN_POINT('',(0.004,-0.0885,0.00813393125268149));
#1499=CARTESIAN_POINT('',(0.004,-0.0885,0.006));
#1500=CARTESIAN_POINT('',(-0.002,-0.0885,0.006));
#1501=CARTESIAN_POINT('',(-0.004,-0.0885,0.006));
#1502=CARTESIAN_POINT('',(-0.004,-0.0885,0.00813393125268149));
#1503=CARTESIAN_POINT('',(-0.022,-0.0885,0.0176039219456295));
#1504=CARTESIAN_POINT('',(-0.0204459673524636,-0.0885,0.0137112627223752));
#1505=CARTESIAN_POINT('',(-0.0194459572653639,-0.0885,0.00950259537675041));
#1506=CARTESIAN_POINT('',(-0.0180000000000087,-0.0885,0.00573866283609149));
#1507=CARTESIAN_POINT('',(-0.0158615521500604,-0.0885,0.0045));
#1508=CARTESIAN_POINT('',(0.009,0.0325,0.008));
#1509=CARTESIAN_POINT('',(-0.0168108441827391,0.0325,0.0045));
#1510=CARTESIAN_POINT('',(-0.022,0.0325,0.0176039219456295));
#1511=CARTESIAN_POINT('',(-0.0204459673524636,0.0325,0.0137112627223752));
#1512=CARTESIAN_POINT('',(-0.0194459572653639,0.0325,0.00950259537675041));
#1513=CARTESIAN_POINT('',(-0.0180000000000087,0.0325,0.00573866283609149));
#1514=CARTESIAN_POINT('',(0.0180000000000086,0.0325,0.00573866283609185));
#1515=CARTESIAN_POINT('',(0.0194459572653637,0.0325,0.00950259537675068));
#1516=CARTESIAN_POINT('',(0.0204459673524633,0.0325,0.0137112627223754));
#1517=CARTESIAN_POINT('',(0.022,0.0325,0.0176039219456295));
#1518=CARTESIAN_POINT('',(-0.0168593919487426,0.0125,0.0100892936637475));
#1519=CARTESIAN_POINT('',(-0.0168593919487426,-0.0685,0.0100892936637475));
#1520=CARTESIAN_POINT('',(-0.0166318553271782,0.0125,0.00937643167257027));
#1521=CARTESIAN_POINT('',(-0.0166318553271782,-0.0685,0.00937643167257027));
#1522=CARTESIAN_POINT('',(-0.0164020298525375,0.0125,0.00867832375745799));
#1523=CARTESIAN_POINT('',(-0.0164020298525375,-0.0685,0.00867832375745799));
#1524=CARTESIAN_POINT('',(-0.0161649832407485,0.0125,0.00799999999866529));
#1525=CARTESIAN_POINT('',(-0.0161649832407485,-0.0685,0.00799999999866529));
#1526=CARTESIAN_POINT('',(-0.0168593919487426,0.0125,0.0100892936637475));
#1527=CARTESIAN_POINT('',(-0.0168117799060068,0.0125,0.00994012727745193));
#1528=CARTESIAN_POINT('',(-0.0163100440427302,0.0125,0.00837807885502438));
#1529=CARTESIAN_POINT('',(-0.0155574413910426,0.0125,0.00622039799415237));
#1530=CARTESIAN_POINT('',(-0.0144658404314979,0.0125,0.00383943431811403));
#1531=CARTESIAN_POINT('',(-0.0135491247378947,0.0125,0.0022327699592842));
#1532=CARTESIAN_POINT('',(-0.0126221725849292,0.0125,0.000969164480074353));
#1533=CARTESIAN_POINT('',(-0.0119719748696374,0.0125,0.000269645354022083));
#1534=CARTESIAN_POINT('',(-0.0116935839767752,0.0125,-1.54659331131831E-11));
#1535=CARTESIAN_POINT('',(-0.0168593919487426,0.0125,0.0100892936637475));
#1536=CARTESIAN_POINT('',(-0.0168593919487426,0.0325,0.0100892936637475));
#1537=CARTESIAN_POINT('',(-0.0168593919487426,-0.0685,0.0100892936637475));
#1538=CARTESIAN_POINT('',(-0.0168593919487426,-0.0685,0.0100892936637475));
#1539=CARTESIAN_POINT('',(-0.0168117799060068,-0.0685,0.00994012727745193));
#1540=CARTESIAN_POINT('',(-0.0163100440427302,-0.0685,0.00837807885502438));
#1541=CARTESIAN_POINT('',(-0.0155574413910426,-0.0685,0.00622039799415237));
#1542=CARTESIAN_POINT('',(-0.0144658404314979,-0.0685,0.00383943431811403));
#1543=CARTESIAN_POINT('',(-0.0135491247378947,-0.0685,0.0022327699592842));
#1544=CARTESIAN_POINT('',(-0.0126221725849292,-0.0685,0.000969164480074353));
#1545=CARTESIAN_POINT('',(-0.0119719748696374,-0.0685,0.000269645354022083));
#1546=CARTESIAN_POINT('',(-0.0116935839767752,-0.0685,-1.54659331131831E-11));
#1547=CARTESIAN_POINT('',(-0.022,0.0325,0.0176039219456295));
#1548=CARTESIAN_POINT('',(-0.022,-0.0885,0.0176039219456295));
#1549=CARTESIAN_POINT('',(-0.0204459673524636,0.0325,0.0137112627223752));
#1550=CARTESIAN_POINT('',(-0.0204459673524636,-0.0885,0.0137112627223752));
#1551=CARTESIAN_POINT('',(-0.0194459572653639,0.0325,0.00950259537675041));
#1552=CARTESIAN_POINT('',(-0.0194459572653639,-0.0885,0.00950259537675041));
#1553=CARTESIAN_POINT('',(-0.0180000000000087,0.0325,0.00573866283609149));
#1554=CARTESIAN_POINT('',(-0.0180000000000087,-0.0885,0.00573866283609149));
#1555=CARTESIAN_POINT('',(-0.018088136917823,0.0305,0.00597007429802152));
#1556=CARTESIAN_POINT('',(-0.0180589756540267,0.0305,0.00589285356353491));
#1557=CARTESIAN_POINT('',(-0.0180296004466333,0.0305,0.00581571496407466));
#1558=CARTESIAN_POINT('',(-0.0180000000000087,0.0305,0.00573866283609149));
#1559=CARTESIAN_POINT('',(-0.018088136917823,0.0305,0.00597007429802152));
#1560=CARTESIAN_POINT('',(-0.018088136917823,0.0325,0.00597007429802152));
#1561=CARTESIAN_POINT('',(-0.018088136917823,0.014,0.00597007429802152));
#1562=CARTESIAN_POINT('',(-0.018088136917823,0.014,0.00597007429802152));
#1563=CARTESIAN_POINT('',(-0.0180589756540267,0.014,0.00589285356353491));
#1564=CARTESIAN_POINT('',(-0.0180296004466333,0.014,0.00581571496407466));
#1565=CARTESIAN_POINT('',(-0.0180000000000087,0.014,0.00573866283609149));
#1566=CARTESIAN_POINT('',(-0.0180562463192283,0.0325000000042928,0.0139077446366913));
#1567=CARTESIAN_POINT('',(-0.0179999999987305,0.0325,0.0137307054444477));
#1568=CARTESIAN_POINT('',(-0.0179999999987305,0.0125,0.0137307054444477));
#1569=CARTESIAN_POINT('',(-0.0179999999987305,-0.0685,0.0137307054444477));
#1570=CARTESIAN_POINT('',(-0.0211177480998169,0.0125,0.0235314091574046));
#1571=CARTESIAN_POINT('',(-0.0180562463192283,-0.0685000000000001,0.0139077446366913));
#1572=CARTESIAN_POINT('',(-0.0179999999987305,0.0125,0.0137307054444477));
#1573=CARTESIAN_POINT('',(-0.0179999999987305,-0.0685,0.0137307054444477));
#1574=CARTESIAN_POINT('',(-0.0176072718871491,0.0125,0.0124911438719378));
#1575=CARTESIAN_POINT('',(-0.0176072718871491,-0.0685,0.0124911438719378));
#1576=CARTESIAN_POINT('',(-0.0172362433995041,0.0125,0.0112699522923277));
#1577=CARTESIAN_POINT('',(-0.0172362433995041,-0.0685,0.0112699522923277));
#1578=CARTESIAN_POINT('',(-0.0168593919487426,0.0125,0.0100892936637475));
#1579=CARTESIAN_POINT('',(-0.0168593919487426,-0.0685,0.0100892936637475));
#1580=CARTESIAN_POINT('',(-0.0179999999987305,0.0125,0.0137307054444477));
#1581=CARTESIAN_POINT('',(-0.0176072718871491,0.0125,0.0124911438719378));
#1582=CARTESIAN_POINT('',(-0.0172362433995041,0.0125,0.0112699522923277));
#1583=CARTESIAN_POINT('',(-0.0168593919487426,0.0125,0.0100892936637475));
#1584=CARTESIAN_POINT('',(-0.0179999999987305,-0.0685,0.0137307054444477));
#1585=CARTESIAN_POINT('',(-0.0176072718871491,-0.0685,0.0124911438719378));
#1586=CARTESIAN_POINT('',(-0.0172362433995041,-0.0685,0.0112699522923277));
#1587=CARTESIAN_POINT('',(-0.0168593919487426,-0.0685,0.0100892936637475));
#1588=CARTESIAN_POINT('',(0.0180562463188042,0.0325000000042928,0.0139077446353566));
#1589=CARTESIAN_POINT('',(0.0211177480997916,0.0125,0.0235314091576189));
#1590=CARTESIAN_POINT('',(0.0179999999978853,0.0125,0.0137307054417808));
#1591=CARTESIAN_POINT('',(0.0179999999978853,0.0325,0.0137307054417808));
#1592=CARTESIAN_POINT('',(0.0179999999978853,-0.0685,0.0137307054417808));
#1593=CARTESIAN_POINT('',(0.0180562463188042,-0.0685,0.0139077446353566));
#1594=CARTESIAN_POINT('',(0.0168593919487423,0.0125,0.0100892936637475));
#1595=CARTESIAN_POINT('',(0.0168593919487423,-0.0685,0.0100892936637475));
#1596=CARTESIAN_POINT('',(0.0172362433992336,0.0125,0.011269952291481));
#1597=CARTESIAN_POINT('',(0.0172362433992336,-0.0685,0.011269952291481));
#1598=CARTESIAN_POINT('',(0.0176072718866168,0.0125,0.0124911438701863));
#1599=CARTESIAN_POINT('',(0.0176072718866168,-0.0685,0.0124911438701863));
#1600=CARTESIAN_POINT('',(0.0179999999978853,0.0125,0.0137307054417808));
#1601=CARTESIAN_POINT('',(0.0179999999978853,-0.0685,0.0137307054417808));
#1602=CARTESIAN_POINT('',(0.0168593919487423,0.0125,0.0100892936637475));
#1603=CARTESIAN_POINT('',(0.0172362433992336,0.0125,0.011269952291481));
#1604=CARTESIAN_POINT('',(0.0176072718866167,0.0125,0.0124911438701863));
#1605=CARTESIAN_POINT('',(0.0179999999978853,0.0125,0.0137307054417808));
#1606=CARTESIAN_POINT('',(0.0168593919487423,0.0125,0.0100892936637475));
#1607=CARTESIAN_POINT('',(0.0168593919487423,0.0325,0.0100892936730029));
#1608=CARTESIAN_POINT('',(0.0168593919487423,-0.0685,0.0100892936730029));
#1609=CARTESIAN_POINT('',(0.0168593919487423,-0.0685,0.0100892936637475));
#1610=CARTESIAN_POINT('',(0.0172362433992336,-0.0685,0.011269952291481));
#1611=CARTESIAN_POINT('',(0.0176072718866167,-0.0685,0.0124911438701863));
#1612=CARTESIAN_POINT('',(0.0179999999978853,-0.0685,0.0137307054417808));
#1613=CARTESIAN_POINT('',(0.0180000000000087,0.0325,0.00573866283609185));
#1614=CARTESIAN_POINT('',(0.0180000000000087,-0.0885,0.00573866283609185));
#1615=CARTESIAN_POINT('',(0.0194459572653637,0.0325,0.00950259537675068));
#1616=CARTESIAN_POINT('',(0.0194459572653637,-0.0885,0.00950259537675068));
#1617=CARTESIAN_POINT('',(0.0204459673524634,0.0325,0.0137112627223754));
#1618=CARTESIAN_POINT('',(0.0204459673524634,-0.0885,0.0137112627223754));
#1619=CARTESIAN_POINT('',(0.022,0.0325,0.0176039219456295));
#1620=CARTESIAN_POINT('',(0.022,-0.0885,0.0176039219456295));
#1621=CARTESIAN_POINT('',(0.0180881369178228,0.014,0.00597007429802155));
#1622=CARTESIAN_POINT('',(0.0180589756540265,0.014,0.00589285356353496));
#1623=CARTESIAN_POINT('',(0.0180296004466332,0.014,0.005815714964075));
#1624=CARTESIAN_POINT('',(0.0180000000000086,0.014,0.00573866283609185));
#1625=CARTESIAN_POINT('',(0.0180881369178228,0.014,0.00597007429802155));
#1626=CARTESIAN_POINT('',(0.0180881369178228,-0.0885,0.00597007429802155));
#1627=CARTESIAN_POINT('',(0.0180881369178228,0.0305,0.00597007429802155));
#1628=CARTESIAN_POINT('',(0.0180881369178228,0.0305,0.00597007429802155));
#1629=CARTESIAN_POINT('',(0.0180589756540265,0.0305,0.00589285356353496));
#1630=CARTESIAN_POINT('',(0.0180296004466332,0.0305,0.005815714964075));
#1631=CARTESIAN_POINT('',(0.0180000000000086,0.0305,0.00573866283609185));
#1632=CARTESIAN_POINT('',(0.0161649832294906,0.0125,0.00799999996645065));
#1633=CARTESIAN_POINT('',(0.0161649832294906,-0.0685,0.00799999996645065));
#1634=CARTESIAN_POINT('',(0.0164020298452594,0.0125,0.00867832373535498));
#1635=CARTESIAN_POINT('',(0.0164020298452594,-0.0685,0.00867832373535498));
#1636=CARTESIAN_POINT('',(0.0166318553235762,0.0125,0.00937643166128516));
#1637=CARTESIAN_POINT('',(0.0166318553235762,-0.0685,0.00937643166128516));
#1638=CARTESIAN_POINT('',(0.0168593919487423,0.0125,0.0100892936637475));
#1639=CARTESIAN_POINT('',(0.0168593919487423,-0.0685,0.0100892936637475));
#1640=CARTESIAN_POINT('',(0.0116935839767753,0.0125,-1.54659184764539E-11));
#1641=CARTESIAN_POINT('',(0.0119719748696374,0.0125,0.000269645354022073));
#1642=CARTESIAN_POINT('',(0.0126221725849292,0.0125,0.000969164480074314));
#1643=CARTESIAN_POINT('',(0.0135491247378946,0.0125,0.00223276995928413));
#1644=CARTESIAN_POINT('',(0.0144658404314978,0.0125,0.00383943431811395));
#1645=CARTESIAN_POINT('',(0.0155574413910424,0.0125,0.00622039799415231));
#1646=CARTESIAN_POINT('',(0.01631004404273,0.0125,0.00837807885502435));
#1647=CARTESIAN_POINT('',(0.0168117799060066,0.0125,0.00994012727745193));
#1648=CARTESIAN_POINT('',(0.0168593919487423,0.0125,0.0100892936637475));
#1649=CARTESIAN_POINT('',(0.0116935839767753,-0.0685,-1.54659184764539E-11));
#1650=CARTESIAN_POINT('',(0.0119719748696374,-0.0685,0.000269645354022073));
#1651=CARTESIAN_POINT('',(0.0126221725849292,-0.0685,0.000969164480074314));
#1652=CARTESIAN_POINT('',(0.0135491247378946,-0.0685,0.00223276995928413));
#1653=CARTESIAN_POINT('',(0.0144658404314978,-0.0685,0.00383943431811395));
#1654=CARTESIAN_POINT('',(0.0155574413910424,-0.0685,0.00622039799415231));
#1655=CARTESIAN_POINT('',(0.01631004404273,-0.0685,0.00837807885502435));
#1656=CARTESIAN_POINT('',(0.0168117799060066,-0.0685,0.00994012727745193));
#1657=CARTESIAN_POINT('',(0.0168593919487423,-0.0685,0.0100892936637475));
#1658=CARTESIAN_POINT('',(-0.0149999999942584,0.0125,0.00502239890182478));
#1659=CARTESIAN_POINT('',(-0.0149999999942584,-0.0685,0.00502239890182478));
#1660=CARTESIAN_POINT('',(-0.0140991100687086,0.0125,0.00300551063075656));
#1661=CARTESIAN_POINT('',(-0.0140991100687086,-0.0685,0.00300551063075656));
#1662=CARTESIAN_POINT('',(-0.0130474141993487,0.0125,0.00131130024596388));
#1663=CARTESIAN_POINT('',(-0.0130474141993487,-0.0685,0.00131130024596388));
#1664=CARTESIAN_POINT('',(-0.0116935839767752,0.0125,-1.54659331131831E-11));
#1665=CARTESIAN_POINT('',(-0.0116935839767752,-0.0685,-1.54659331131831E-11));
#1666=CARTESIAN_POINT('',(-0.0168593919487426,0.0125,0.0100892936637475));
#1667=CARTESIAN_POINT('',(-0.0168117799060068,0.0125,0.00994012727745193));
#1668=CARTESIAN_POINT('',(-0.0163100440427302,0.0125,0.00837807885502438));
#1669=CARTESIAN_POINT('',(-0.0155574413910426,0.0125,0.00622039799415237));
#1670=CARTESIAN_POINT('',(-0.0144658404314979,0.0125,0.00383943431811403));
#1671=CARTESIAN_POINT('',(-0.0135491247378947,0.0125,0.0022327699592842));
#1672=CARTESIAN_POINT('',(-0.0126221725849292,0.0125,0.000969164480074353));
#1673=CARTESIAN_POINT('',(-0.0119719748696374,0.0125,0.000269645354022083));
#1674=CARTESIAN_POINT('',(-0.0116935839767752,0.0125,-1.54659331131831E-11));
#1675=CARTESIAN_POINT('',(-0.0168593919487426,-0.0685,0.0100892936637475));
#1676=CARTESIAN_POINT('',(-0.0168117799060068,-0.0685,0.00994012727745193));
#1677=CARTESIAN_POINT('',(-0.0163100440427302,-0.0685,0.00837807885502438));
#1678=CARTESIAN_POINT('',(-0.0155574413910426,-0.0685,0.00622039799415237));
#1679=CARTESIAN_POINT('',(-0.0144658404314979,-0.0685,0.00383943431811403));
#1680=CARTESIAN_POINT('',(-0.0135491247378947,-0.0685,0.0022327699592842));
#1681=CARTESIAN_POINT('',(-0.0126221725849292,-0.0685,0.000969164480074353));
#1682=CARTESIAN_POINT('',(-0.0119719748696374,-0.0685,0.000269645354022083));
#1683=CARTESIAN_POINT('',(-0.0116935839767752,-0.0685,-1.54659331131831E-11));
#1684=CARTESIAN_POINT('',(0.0116935839767753,0.0125,-1.54659184764539E-11));
#1685=CARTESIAN_POINT('',(0.0116935839767753,-0.0685,-1.54659184764539E-11));
#1686=CARTESIAN_POINT('',(0.0130474142012215,0.0125,0.001311300247778));
#1687=CARTESIAN_POINT('',(0.0130474142012215,-0.0685,0.001311300247778));
#1688=CARTESIAN_POINT('',(0.0140991100716355,0.0125,0.00300551063549849));
#1689=CARTESIAN_POINT('',(0.0140991100716355,-0.0685,0.00300551063549849));
#1690=CARTESIAN_POINT('',(0.0149999999979972,0.0125,0.00502239891019552));
#1691=CARTESIAN_POINT('',(0.0149999999979972,-0.0685,0.00502239891019552));
#1692=CARTESIAN_POINT('',(0.0116935839767753,0.0125,-1.54659184764539E-11));
#1693=CARTESIAN_POINT('',(0.0119719748696374,0.0125,0.000269645354022073));
#1694=CARTESIAN_POINT('',(0.0126221725849292,0.0125,0.000969164480074314));
#1695=CARTESIAN_POINT('',(0.0135491247378946,0.0125,0.00223276995928413));
#1696=CARTESIAN_POINT('',(0.0144658404314978,0.0125,0.00383943431811395));
#1697=CARTESIAN_POINT('',(0.0155574413910424,0.0125,0.00622039799415231));
#1698=CARTESIAN_POINT('',(0.01631004404273,0.0125,0.00837807885502435));
#1699=CARTESIAN_POINT('',(0.0168117799060066,0.0125,0.00994012727745193));
#1700=CARTESIAN_POINT('',(0.0168593919487423,0.0125,0.0100892936637475));
#1701=CARTESIAN_POINT('',(0.0116935839767753,-0.0685,-1.54659184764539E-11));
#1702=CARTESIAN_POINT('',(0.0119719748696374,-0.0685,0.000269645354022073));
#1703=CARTESIAN_POINT('',(0.0126221725849292,-0.0685,0.000969164480074314));
#1704=CARTESIAN_POINT('',(0.0135491247378946,-0.0685,0.00223276995928413));
#1705=CARTESIAN_POINT('',(0.0144658404314978,-0.0685,0.00383943431811395));
#1706=CARTESIAN_POINT('',(0.0155574413910424,-0.0685,0.00622039799415231));
#1707=CARTESIAN_POINT('',(0.01631004404273,-0.0685,0.00837807885502435));
#1708=CARTESIAN_POINT('',(0.0168117799060066,-0.0685,0.00994012727745193));
#1709=CARTESIAN_POINT('',(0.0168593919487423,-0.0685,0.0100892936637475));
#1710=CARTESIAN_POINT('',(0.,1.62265700887024E-18,-0.003002));
#1711=CARTESIAN_POINT('',(0.,-0.028,-0.003002));
#1712=CARTESIAN_POINT('',(0.,-0.056,-0.003002));
#1713=CARTESIAN_POINT('',(0.,-0.0685,0.0302494346320519));
#1714=CARTESIAN_POINT('',(-0.004,-0.0685,0.00813393125268149));
#1715=CARTESIAN_POINT('',(-0.004,-0.0685,0.006));
#1716=CARTESIAN_POINT('',(-0.002,-0.0685,0.006));
#1717=CARTESIAN_POINT('',(0.004,-0.0685,0.006));
#1718=CARTESIAN_POINT('',(0.004,-0.0685,0.00813393125268149));
#1719=CARTESIAN_POINT('',(0.,0.0125,0.0302494346320519));
#1720=CARTESIAN_POINT('',(0.00575,-0.07,-2.18260089174001));
#1721=CARTESIAN_POINT('',(0.00575,-0.07,-0.00150000000000006));
#1722=CARTESIAN_POINT('',(0.0158615521500602,-0.07,0.0045));
#1723=CARTESIAN_POINT('',(0.0158615521500602,-0.07,0.003));
#1724=CARTESIAN_POINT('',(0.00575,-0.07,0.003));
#1725=CARTESIAN_POINT('',(-0.0158615521500604,-0.07,0.003));
#1726=CARTESIAN_POINT('',(-0.0158615521500604,-0.07,0.0045));
#1727=CARTESIAN_POINT('',(4.85722573273506E-17,-0.028,0.003));
#1728=CARTESIAN_POINT('',(0.0158615521500602,-0.0885,0.003));
#1729=CARTESIAN_POINT('',(-0.0158615521500604,-0.07,0.003));
#1730=CARTESIAN_POINT('',(-0.00575,0.0305,-2.18060089174001));
#1731=CARTESIAN_POINT('',(-0.0165,0.0305,0.003));
#1732=CARTESIAN_POINT('',(0.0158615521500602,0.0305,0.003));
#1733=CARTESIAN_POINT('',(-0.0158615521500604,0.0305,0.003));
#1734=CARTESIAN_POINT('',(0.0158615521500602,0.0305,0.0045));
#1735=CARTESIAN_POINT('',(0.0166848626216203,0.0305,0.0065));
#1736=CARTESIAN_POINT('',(0.0166848626216203,0.0305,0.005));
#1737=CARTESIAN_POINT('',(-0.00575,0.0305,0.005));
#1738=CARTESIAN_POINT('',(-0.0166848626216205,0.0305,0.005));
#1739=CARTESIAN_POINT('',(-0.0166848626216205,0.0305,0.0065));
#1740=CARTESIAN_POINT('',(-0.0158615521500604,0.0305,0.0045));
#1741=CARTESIAN_POINT('',(-0.00575,0.014,-2.18060089174001));
#1742=CARTESIAN_POINT('',(-0.00575,0.014,-0.00150000000000006));
#1743=CARTESIAN_POINT('',(-0.0166848626216205,0.014,0.0065));
#1744=CARTESIAN_POINT('',(-0.0166848626216205,0.014,0.005));
#1745=CARTESIAN_POINT('',(-0.00575,0.014,0.005));
#1746=CARTESIAN_POINT('',(0.0166848626216203,0.014,0.005));
#1747=CARTESIAN_POINT('',(0.0166848626216203,0.014,0.0065));
#1748=CARTESIAN_POINT('',(4.85722573273506E-17,-0.028,0.005));
#1749=CARTESIAN_POINT('',(-0.0166848626216205,0.02225,0.005));
#1750=CARTESIAN_POINT('',(0.0166848626216203,0.02225,0.005));
#1751=CARTESIAN_POINT('',(-0.004,0.032502,0.00813393125268149));
#1752=CARTESIAN_POINT('',(-0.004,0.032502,0.006));
#1753=CARTESIAN_POINT('',(-0.002,0.032502,0.006));
#1754=CARTESIAN_POINT('',(0.004,0.032502,0.006));
#1755=CARTESIAN_POINT('',(0.004,0.032502,0.00813393125268149));
#1756=CARTESIAN_POINT('',(4.85722573273506E-17,-0.028,0.003));
#1757=CARTESIAN_POINT('',(0.016810844182739,0.031,0.003));
#1758=CARTESIAN_POINT('',(-0.0158615521500604,0.031,0.003));
#1759=CARTESIAN_POINT('',(0.0158615521500602,0.031,0.003));
#1760=CARTESIAN_POINT('',(0.0158615521500602,0.0305,0.003));
#1761=CARTESIAN_POINT('',(-0.0158615521500604,0.0325,0.003));
#1762=CARTESIAN_POINT('',(4.85722573273506E-17,-0.0685,-0.0015));
#1763=CARTESIAN_POINT('',(0.0158615521500602,-0.07925,0.0045));
#1764=CARTESIAN_POINT('',(-0.0158615521500604,-0.07925,0.0045));
#1765=CARTESIAN_POINT('',(-0.0166848626216205,0.02225,0.0065));
#1766=CARTESIAN_POINT('',(0.0166848626216203,0.02225,0.0065));
#1767=CARTESIAN_POINT('',(4.24630137815192E-17,0.0125,-0.0015));
#1768=CARTESIAN_POINT('',(-0.0158615521500604,0.0315,0.0045));
#1769=CARTESIAN_POINT('',(-0.0158615521500604,0.031,0.0045));
#1770=CARTESIAN_POINT('',(2.58281050867657E-17,0.031,0.0045));
#1771=CARTESIAN_POINT('',(0.0158615521500602,0.031,0.0045));
#1772=CARTESIAN_POINT('',(0.0158615521500602,0.0315,0.0045));
#1773=MECHANICAL_DESIGN_GEOMETRIC_PRESENTATION_REPRESENTATION('',(#946),
#1774);
#1774=(
GEOMETRIC_REPRESENTATION_CONTEXT(3)
GLOBAL_UNCERTAINTY_ASSIGNED_CONTEXT((#1775))
GLOBAL_UNIT_ASSIGNED_CONTEXT((#1778,#1777,#1776))
REPRESENTATION_CONTEXT('button_holder','TOP_LEVEL_ASSEMBLY_PART')
);
#1775=UNCERTAINTY_MEASURE_WITH_UNIT(LENGTH_MEASURE(2.E-5),#1778,
'DISTANCE_ACCURACY_VALUE','Maximum Tolerance applied to model');
#1776=(
NAMED_UNIT(*)
SI_UNIT($,.STERADIAN.)
SOLID_ANGLE_UNIT()
);
#1777=(
NAMED_UNIT(*)
PLANE_ANGLE_UNIT()
SI_UNIT($,.RADIAN.)
);
#1778=(
LENGTH_UNIT()
NAMED_UNIT(*)
SI_UNIT($,.METRE.)
);
#1779=PRODUCT_DEFINITION_SHAPE('','',#1780);
#1780=PRODUCT_DEFINITION('','',#1782,#1781);
#1781=PRODUCT_DEFINITION_CONTEXT('',#1788,'design');
#1782=PRODUCT_DEFINITION_FORMATION_WITH_SPECIFIED_SOURCE('','',#1784,
 .NOT_KNOWN.);
#1783=PRODUCT_RELATED_PRODUCT_CATEGORY('','',(#1784));
#1784=PRODUCT('button_holder','button_holder','button_holder',(#1786));
#1785=PRODUCT_CATEGORY('','');
#1786=PRODUCT_CONTEXT('',#1788,'mechanical');
#1787=APPLICATION_PROTOCOL_DEFINITION('international standard',
'ap242_managed_model_based_3d_engineering',2020,#1788);
#1788=APPLICATION_CONTEXT('managed model based 3d engineering');
ENDSEC;
END-ISO-10303-21;
