ISO-10303-21;
HEADER;
/* Generated by software containing ST-Developer
 * from STEP Tools, Inc. (www.steptools.com) 
 */
/* OPTION: using custom renumber hook */

FILE_DESCRIPTION(
/* description */ ('STEP AP242 Edition 2',
'CAx-IF Rec.Pracs.---Representation and Presentation of Product Manufa
cturing Information (PMI)---4.0---2014-10-13',
'CAx-IF Rec.Pracs.---3D Tessellated Geometry---0.4---2014-09-14','2;1',
'CAx-IF Rec.Pracs.---User Defined Attributes---1.5---2016-08-15'),
/* implementation_level */ '2;1');

FILE_NAME(
/* name */ '6975bde900a92cba360038d5',
/* time_stamp */ '2026-01-25T06:53:30Z',
/* author */ (''),
/* organization */ (''),
/* preprocessor_version */ 'ST-DEVELOPER v20',
/* originating_system */ 'ONSHAPE BY PTC INC, 1.209',
/* authorisation */ '  ');

FILE_SCHEMA (('AP242_MANAGED_MODEL_BASED_3D_ENGINEERING_MIM_LF { 1 0 10303 442 3 1 4 }'));
ENDSEC;

DATA;
#10=SHAPE_REPRESENTATION_RELATIONSHIP('','',#209,#11);
#11=ADVANCED_BREP_SHAPE_REPRESENTATION('',(#207),#353);
#12=PLANE('',#235);
#13=PLANE('',#237);
#14=PLANE('',#240);
#15=ORIENTED_EDGE('',*,*,#51,.T.);
#16=ORIENTED_EDGE('',*,*,#52,.F.);
#17=ORIENTED_EDGE('',*,*,#53,.T.);
#18=ORIENTED_EDGE('',*,*,#54,.F.);
#19=ORIENTED_EDGE('',*,*,#55,.T.);
#20=ORIENTED_EDGE('',*,*,#56,.F.);
#21=ORIENTED_EDGE('',*,*,#57,.T.);
#22=ORIENTED_EDGE('',*,*,#58,.F.);
#23=ORIENTED_EDGE('',*,*,#59,.T.);
#24=ORIENTED_EDGE('',*,*,#60,.F.);
#25=ORIENTED_EDGE('',*,*,#61,.T.);
#26=ORIENTED_EDGE('',*,*,#62,.F.);
#27=ORIENTED_EDGE('',*,*,#63,.T.);
#28=ORIENTED_EDGE('',*,*,#64,.F.);
#29=ORIENTED_EDGE('',*,*,#65,.T.);
#30=ORIENTED_EDGE('',*,*,#66,.F.);
#31=ORIENTED_EDGE('',*,*,#67,.F.);
#32=ORIENTED_EDGE('',*,*,#63,.F.);
#33=ORIENTED_EDGE('',*,*,#61,.F.);
#34=ORIENTED_EDGE('',*,*,#59,.F.);
#35=ORIENTED_EDGE('',*,*,#57,.F.);
#36=ORIENTED_EDGE('',*,*,#55,.F.);
#37=ORIENTED_EDGE('',*,*,#53,.F.);
#38=ORIENTED_EDGE('',*,*,#51,.F.);
#39=ORIENTED_EDGE('',*,*,#64,.T.);
#40=ORIENTED_EDGE('',*,*,#62,.T.);
#41=ORIENTED_EDGE('',*,*,#60,.T.);
#42=ORIENTED_EDGE('',*,*,#58,.T.);
#43=ORIENTED_EDGE('',*,*,#56,.T.);
#44=ORIENTED_EDGE('',*,*,#54,.T.);
#45=ORIENTED_EDGE('',*,*,#52,.T.);
#46=ORIENTED_EDGE('',*,*,#65,.F.);
#47=ORIENTED_EDGE('',*,*,#67,.T.);
#48=ORIENTED_EDGE('',*,*,#68,.T.);
#49=ORIENTED_EDGE('',*,*,#68,.F.);
#50=ORIENTED_EDGE('',*,*,#66,.T.);
#51=EDGE_CURVE('',#69,#69,#87,.T.);
#52=EDGE_CURVE('',#70,#70,#88,.T.);
#53=EDGE_CURVE('',#71,#71,#89,.T.);
#54=EDGE_CURVE('',#72,#72,#90,.T.);
#55=EDGE_CURVE('',#73,#73,#91,.T.);
#56=EDGE_CURVE('',#74,#74,#92,.T.);
#57=EDGE_CURVE('',#75,#75,#93,.T.);
#58=EDGE_CURVE('',#76,#76,#94,.T.);
#59=EDGE_CURVE('',#77,#77,#95,.T.);
#60=EDGE_CURVE('',#78,#78,#96,.T.);
#61=EDGE_CURVE('',#79,#79,#97,.T.);
#62=EDGE_CURVE('',#80,#80,#98,.T.);
#63=EDGE_CURVE('',#81,#81,#99,.T.);
#64=EDGE_CURVE('',#82,#82,#100,.T.);
#65=EDGE_CURVE('',#83,#83,#101,.T.);
#66=EDGE_CURVE('',#84,#84,#102,.T.);
#67=EDGE_CURVE('',#85,#85,#103,.F.);
#68=EDGE_CURVE('',#86,#86,#104,.T.);
#69=VERTEX_POINT('',#306);
#70=VERTEX_POINT('',#308);
#71=VERTEX_POINT('',#311);
#72=VERTEX_POINT('',#313);
#73=VERTEX_POINT('',#316);
#74=VERTEX_POINT('',#318);
#75=VERTEX_POINT('',#321);
#76=VERTEX_POINT('',#323);
#77=VERTEX_POINT('',#326);
#78=VERTEX_POINT('',#328);
#79=VERTEX_POINT('',#331);
#80=VERTEX_POINT('',#333);
#81=VERTEX_POINT('',#336);
#82=VERTEX_POINT('',#338);
#83=VERTEX_POINT('',#341);
#84=VERTEX_POINT('',#343);
#85=VERTEX_POINT('',#346);
#86=VERTEX_POINT('',#350);
#87=CIRCLE('',#212,0.003);
#88=CIRCLE('',#213,0.003);
#89=CIRCLE('',#215,0.003);
#90=CIRCLE('',#216,0.003);
#91=CIRCLE('',#218,0.003);
#92=CIRCLE('',#219,0.003);
#93=CIRCLE('',#221,0.003);
#94=CIRCLE('',#222,0.003);
#95=CIRCLE('',#224,0.00299148560902892);
#96=CIRCLE('',#225,0.00299148560902892);
#97=CIRCLE('',#227,0.003);
#98=CIRCLE('',#228,0.003);
#99=CIRCLE('',#230,0.0325);
#100=CIRCLE('',#231,0.0325);
#101=CIRCLE('',#233,0.042);
#102=CIRCLE('',#234,0.042);
#103=CIRCLE('',#236,0.04005);
#104=CIRCLE('',#239,0.04005);
#105=EDGE_LOOP('',(#15));
#106=EDGE_LOOP('',(#16));
#107=EDGE_LOOP('',(#17));
#108=EDGE_LOOP('',(#18));
#109=EDGE_LOOP('',(#19));
#110=EDGE_LOOP('',(#20));
#111=EDGE_LOOP('',(#21));
#112=EDGE_LOOP('',(#22));
#113=EDGE_LOOP('',(#23));
#114=EDGE_LOOP('',(#24));
#115=EDGE_LOOP('',(#25));
#116=EDGE_LOOP('',(#26));
#117=EDGE_LOOP('',(#27));
#118=EDGE_LOOP('',(#28));
#119=EDGE_LOOP('',(#29));
#120=EDGE_LOOP('',(#30));
#121=EDGE_LOOP('',(#31));
#122=EDGE_LOOP('',(#32));
#123=EDGE_LOOP('',(#33));
#124=EDGE_LOOP('',(#34));
#125=EDGE_LOOP('',(#35));
#126=EDGE_LOOP('',(#36));
#127=EDGE_LOOP('',(#37));
#128=EDGE_LOOP('',(#38));
#129=EDGE_LOOP('',(#39));
#130=EDGE_LOOP('',(#40));
#131=EDGE_LOOP('',(#41));
#132=EDGE_LOOP('',(#42));
#133=EDGE_LOOP('',(#43));
#134=EDGE_LOOP('',(#44));
#135=EDGE_LOOP('',(#45));
#136=EDGE_LOOP('',(#46));
#137=EDGE_LOOP('',(#47));
#138=EDGE_LOOP('',(#48));
#139=EDGE_LOOP('',(#49));
#140=EDGE_LOOP('',(#50));
#141=FACE_BOUND('',#105,.T.);
#142=FACE_BOUND('',#106,.T.);
#143=FACE_BOUND('',#107,.T.);
#144=FACE_BOUND('',#108,.T.);
#145=FACE_BOUND('',#109,.T.);
#146=FACE_BOUND('',#110,.T.);
#147=FACE_BOUND('',#111,.T.);
#148=FACE_BOUND('',#112,.T.);
#149=FACE_BOUND('',#113,.T.);
#150=FACE_BOUND('',#114,.T.);
#151=FACE_BOUND('',#115,.T.);
#152=FACE_BOUND('',#116,.T.);
#153=FACE_BOUND('',#117,.T.);
#154=FACE_BOUND('',#118,.T.);
#155=FACE_BOUND('',#119,.T.);
#156=FACE_BOUND('',#120,.T.);
#157=FACE_BOUND('',#121,.T.);
#158=FACE_BOUND('',#122,.T.);
#159=FACE_BOUND('',#123,.T.);
#160=FACE_BOUND('',#124,.T.);
#161=FACE_BOUND('',#125,.T.);
#162=FACE_BOUND('',#126,.T.);
#163=FACE_BOUND('',#127,.T.);
#164=FACE_BOUND('',#128,.T.);
#165=FACE_BOUND('',#129,.T.);
#166=FACE_BOUND('',#130,.T.);
#167=FACE_BOUND('',#131,.T.);
#168=FACE_BOUND('',#132,.T.);
#169=FACE_BOUND('',#133,.T.);
#170=FACE_BOUND('',#134,.T.);
#171=FACE_BOUND('',#135,.T.);
#172=FACE_BOUND('',#136,.T.);
#173=FACE_BOUND('',#137,.T.);
#174=FACE_BOUND('',#138,.T.);
#175=FACE_BOUND('',#139,.T.);
#176=FACE_BOUND('',#140,.T.);
#177=CYLINDRICAL_SURFACE('',#211,0.003);
#178=CYLINDRICAL_SURFACE('',#214,0.003);
#179=CYLINDRICAL_SURFACE('',#217,0.003);
#180=CYLINDRICAL_SURFACE('',#220,0.003);
#181=CYLINDRICAL_SURFACE('',#223,0.00299148560902892);
#182=CYLINDRICAL_SURFACE('',#226,0.003);
#183=CYLINDRICAL_SURFACE('',#229,0.0325);
#184=CYLINDRICAL_SURFACE('',#232,0.042);
#185=CYLINDRICAL_SURFACE('',#238,0.04005);
#186=ADVANCED_FACE('',(#141,#142),#177,.F.);
#187=ADVANCED_FACE('',(#143,#144),#178,.F.);
#188=ADVANCED_FACE('',(#145,#146),#179,.F.);
#189=ADVANCED_FACE('',(#147,#148),#180,.F.);
#190=ADVANCED_FACE('',(#149,#150),#181,.F.);
#191=ADVANCED_FACE('',(#151,#152),#182,.F.);
#192=ADVANCED_FACE('',(#153,#154),#183,.F.);
#193=ADVANCED_FACE('',(#155,#156),#184,.T.);
#194=ADVANCED_FACE('',(#157,#158,#159,#160,#161,#162,#163,#164),#12,.T.);
#195=ADVANCED_FACE('',(#165,#166,#167,#168,#169,#170,#171,#172),#13,.F.);
#196=ADVANCED_FACE('',(#173,#174),#185,.F.);
#197=ADVANCED_FACE('',(#175,#176),#14,.T.);
#198=CLOSED_SHELL('',(#186,#187,#188,#189,#190,#191,#192,#193,#194,#195,
#196,#197));
#199=STYLED_ITEM('',(#200),#207);
#200=PRESENTATION_STYLE_ASSIGNMENT((#201));
#201=SURFACE_STYLE_USAGE(.BOTH.,#202);
#202=SURFACE_SIDE_STYLE('',(#203));
#203=SURFACE_STYLE_FILL_AREA(#204);
#204=FILL_AREA_STYLE('',(#205));
#205=FILL_AREA_STYLE_COLOUR('',#206);
#206=COLOUR_RGB('',0.917647058823529,0.917647058823529,0.917647058823529);
#207=MANIFOLD_SOLID_BREP('top_end_cap',#198);
#208=SHAPE_DEFINITION_REPRESENTATION(#358,#209);
#209=SHAPE_REPRESENTATION('top_end_cap',(#210),#353);
#210=AXIS2_PLACEMENT_3D('',#303,#241,#242);
#211=AXIS2_PLACEMENT_3D('',#304,#243,#244);
#212=AXIS2_PLACEMENT_3D('',#305,#245,#246);
#213=AXIS2_PLACEMENT_3D('',#307,#247,#248);
#214=AXIS2_PLACEMENT_3D('',#309,#249,#250);
#215=AXIS2_PLACEMENT_3D('',#310,#251,#252);
#216=AXIS2_PLACEMENT_3D('',#312,#253,#254);
#217=AXIS2_PLACEMENT_3D('',#314,#255,#256);
#218=AXIS2_PLACEMENT_3D('',#315,#257,#258);
#219=AXIS2_PLACEMENT_3D('',#317,#259,#260);
#220=AXIS2_PLACEMENT_3D('',#319,#261,#262);
#221=AXIS2_PLACEMENT_3D('',#320,#263,#264);
#222=AXIS2_PLACEMENT_3D('',#322,#265,#266);
#223=AXIS2_PLACEMENT_3D('',#324,#267,#268);
#224=AXIS2_PLACEMENT_3D('',#325,#269,#270);
#225=AXIS2_PLACEMENT_3D('',#327,#271,#272);
#226=AXIS2_PLACEMENT_3D('',#329,#273,#274);
#227=AXIS2_PLACEMENT_3D('',#330,#275,#276);
#228=AXIS2_PLACEMENT_3D('',#332,#277,#278);
#229=AXIS2_PLACEMENT_3D('',#334,#279,#280);
#230=AXIS2_PLACEMENT_3D('',#335,#281,#282);
#231=AXIS2_PLACEMENT_3D('',#337,#283,#284);
#232=AXIS2_PLACEMENT_3D('',#339,#285,#286);
#233=AXIS2_PLACEMENT_3D('',#340,#287,#288);
#234=AXIS2_PLACEMENT_3D('',#342,#289,#290);
#235=AXIS2_PLACEMENT_3D('',#344,#291,#292);
#236=AXIS2_PLACEMENT_3D('',#345,#293,#294);
#237=AXIS2_PLACEMENT_3D('',#347,#295,#296);
#238=AXIS2_PLACEMENT_3D('',#348,#297,#298);
#239=AXIS2_PLACEMENT_3D('',#349,#299,#300);
#240=AXIS2_PLACEMENT_3D('',#351,#301,#302);
#241=DIRECTION('',(0.,0.,1.));
#242=DIRECTION('',(1.,0.,0.));
#243=DIRECTION('',(0.,0.,-1.));
#244=DIRECTION('',(-1.,0.,0.));
#245=DIRECTION('',(0.,0.,1.));
#246=DIRECTION('',(1.,0.,0.));
#247=DIRECTION('',(0.,0.,1.));
#248=DIRECTION('',(1.,0.,0.));
#249=DIRECTION('',(0.,0.,-1.));
#250=DIRECTION('',(-1.,0.,0.));
#251=DIRECTION('',(0.,0.,1.));
#252=DIRECTION('',(1.,0.,0.));
#253=DIRECTION('',(0.,0.,1.));
#254=DIRECTION('',(1.,0.,0.));
#255=DIRECTION('',(0.,0.,-1.));
#256=DIRECTION('',(-1.,0.,0.));
#257=DIRECTION('',(0.,0.,1.));
#258=DIRECTION('',(1.,0.,0.));
#259=DIRECTION('',(0.,0.,1.));
#260=DIRECTION('',(1.,0.,0.));
#261=DIRECTION('',(0.,0.,-1.));
#262=DIRECTION('',(-1.,0.,0.));
#263=DIRECTION('',(0.,0.,1.));
#264=DIRECTION('',(1.,0.,0.));
#265=DIRECTION('',(0.,0.,1.));
#266=DIRECTION('',(1.,0.,0.));
#267=DIRECTION('',(0.,0.,-1.));
#268=DIRECTION('',(-1.,0.,0.));
#269=DIRECTION('',(0.,0.,1.));
#270=DIRECTION('',(1.,0.,0.));
#271=DIRECTION('',(0.,0.,1.));
#272=DIRECTION('',(1.,0.,0.));
#273=DIRECTION('',(0.,0.,-1.));
#274=DIRECTION('',(-1.,0.,0.));
#275=DIRECTION('',(0.,0.,1.));
#276=DIRECTION('',(1.,0.,0.));
#277=DIRECTION('',(0.,0.,1.));
#278=DIRECTION('',(1.,0.,0.));
#279=DIRECTION('',(0.,0.,-1.));
#280=DIRECTION('',(-1.,0.,0.));
#281=DIRECTION('',(0.,0.,1.));
#282=DIRECTION('',(1.,0.,0.));
#283=DIRECTION('',(0.,0.,1.));
#284=DIRECTION('',(1.,0.,0.));
#285=DIRECTION('',(0.,0.,-1.));
#286=DIRECTION('',(-1.,0.,0.));
#287=DIRECTION('',(0.,0.,1.));
#288=DIRECTION('',(1.,0.,0.));
#289=DIRECTION('',(0.,0.,1.));
#290=DIRECTION('',(1.,0.,0.));
#291=DIRECTION('',(0.,0.,1.));
#292=DIRECTION('',(1.,0.,0.));
#293=DIRECTION('',(0.,0.,1.));
#294=DIRECTION('',(1.,0.,0.));
#295=DIRECTION('',(0.,0.,1.));
#296=DIRECTION('',(1.,0.,0.));
#297=DIRECTION('',(0.,0.,-1.));
#298=DIRECTION('',(-1.,0.,0.));
#299=DIRECTION('',(0.,0.,1.));
#300=DIRECTION('',(1.,0.,0.));
#301=DIRECTION('',(0.,0.,1.));
#302=DIRECTION('',(1.,0.,0.));
#303=CARTESIAN_POINT('',(0.,0.,0.));
#304=CARTESIAN_POINT('',(-0.0317831323188889,-0.01835,0.002));
#305=CARTESIAN_POINT('',(-0.0317831323188889,-0.01835,0.002));
#306=CARTESIAN_POINT('',(-0.0287831323188889,-0.01835,0.002));
#307=CARTESIAN_POINT('',(-0.0317831323188889,-0.01835,0.));
#308=CARTESIAN_POINT('',(-0.0287831323188889,-0.01835,0.));
#309=CARTESIAN_POINT('',(-0.0317831323188889,0.01835,0.002));
#310=CARTESIAN_POINT('',(-0.0317831323188889,0.01835,0.002));
#311=CARTESIAN_POINT('',(-0.0287831323188889,0.01835,0.002));
#312=CARTESIAN_POINT('',(-0.0317831323188889,0.01835,0.));
#313=CARTESIAN_POINT('',(-0.0287831323188889,0.01835,0.));
#314=CARTESIAN_POINT('',(0.,0.0367,0.002));
#315=CARTESIAN_POINT('',(0.,0.0367,0.002));
#316=CARTESIAN_POINT('',(0.003,0.0367,0.002));
#317=CARTESIAN_POINT('',(0.,0.0367,0.));
#318=CARTESIAN_POINT('',(0.003,0.0367,0.));
#319=CARTESIAN_POINT('',(0.0317831323188889,0.01835,0.002));
#320=CARTESIAN_POINT('',(0.0317831323188889,0.01835,0.002));
#321=CARTESIAN_POINT('',(0.0347831323188889,0.01835,0.002));
#322=CARTESIAN_POINT('',(0.0317831323188889,0.01835,0.));
#323=CARTESIAN_POINT('',(0.0347831323188889,0.01835,0.));
#324=CARTESIAN_POINT('',(0.0317831323188889,-0.01835,0.002));
#325=CARTESIAN_POINT('',(0.0317831323188889,-0.01835,0.002));
#326=CARTESIAN_POINT('',(0.0347746179279178,-0.01835,0.002));
#327=CARTESIAN_POINT('',(0.0317831323188889,-0.01835,0.));
#328=CARTESIAN_POINT('',(0.0347746179279178,-0.01835,0.));
#329=CARTESIAN_POINT('',(-1.64798730217796E-17,-0.0367,0.002));
#330=CARTESIAN_POINT('',(-1.64798730217796E-17,-0.0367,0.002));
#331=CARTESIAN_POINT('',(0.00299999999999998,-0.0367,0.002));
#332=CARTESIAN_POINT('',(-1.64798730217796E-17,-0.0367,0.));
#333=CARTESIAN_POINT('',(0.00299999999999998,-0.0367,0.));
#334=CARTESIAN_POINT('',(0.,1.99005104861445E-18,0.002));
#335=CARTESIAN_POINT('',(0.,1.99005104861445E-18,0.002));
#336=CARTESIAN_POINT('',(0.0325,1.99005104861445E-18,0.002));
#337=CARTESIAN_POINT('',(0.,1.99005104861445E-18,0.));
#338=CARTESIAN_POINT('',(0.0325,1.99005104861445E-18,0.));
#339=CARTESIAN_POINT('',(0.,2.57175827820944E-18,0.002));
#340=CARTESIAN_POINT('',(0.,2.57175827820944E-18,0.));
#341=CARTESIAN_POINT('',(0.042,2.57175827820944E-18,0.));
#342=CARTESIAN_POINT('',(0.,2.57175827820944E-18,0.01));
#343=CARTESIAN_POINT('',(0.042,2.57175827820944E-18,0.01));
#344=CARTESIAN_POINT('',(0.,0.,0.002));
#345=CARTESIAN_POINT('',(0.,2.45235521529257E-18,0.002));
#346=CARTESIAN_POINT('',(0.04005,2.45235521529257E-18,0.002));
#347=CARTESIAN_POINT('',(0.,0.,0.));
#348=CARTESIAN_POINT('',(0.,2.45235521529257E-18,0.01));
#349=CARTESIAN_POINT('',(0.,2.45235521529257E-18,0.01));
#350=CARTESIAN_POINT('',(0.04005,2.45235521529257E-18,0.01));
#351=CARTESIAN_POINT('',(0.,0.,0.01));
#352=MECHANICAL_DESIGN_GEOMETRIC_PRESENTATION_REPRESENTATION('',(#199),
#353);
#353=(
GEOMETRIC_REPRESENTATION_CONTEXT(3)
GLOBAL_UNCERTAINTY_ASSIGNED_CONTEXT((#354))
GLOBAL_UNIT_ASSIGNED_CONTEXT((#357,#356,#355))
REPRESENTATION_CONTEXT('top_end_cap','TOP_LEVEL_ASSEMBLY_PART')
);
#354=UNCERTAINTY_MEASURE_WITH_UNIT(LENGTH_MEASURE(1.E-8),#357,
'DISTANCE_ACCURACY_VALUE','Maximum Tolerance applied to model');
#355=(
NAMED_UNIT(*)
SI_UNIT($,.STERADIAN.)
SOLID_ANGLE_UNIT()
);
#356=(
NAMED_UNIT(*)
PLANE_ANGLE_UNIT()
SI_UNIT($,.RADIAN.)
);
#357=(
LENGTH_UNIT()
NAMED_UNIT(*)
SI_UNIT($,.METRE.)
);
#358=PRODUCT_DEFINITION_SHAPE('','',#359);
#359=PRODUCT_DEFINITION('','',#361,#360);
#360=PRODUCT_DEFINITION_CONTEXT('',#367,'design');
#361=PRODUCT_DEFINITION_FORMATION_WITH_SPECIFIED_SOURCE('','',#363,
 .NOT_KNOWN.);
#362=PRODUCT_RELATED_PRODUCT_CATEGORY('','',(#363));
#363=PRODUCT('top_end_cap','top_end_cap','top_end_cap',(#365));
#364=PRODUCT_CATEGORY('','');
#365=PRODUCT_CONTEXT('',#367,'mechanical');
#366=APPLICATION_PROTOCOL_DEFINITION('international standard',
'ap242_managed_model_based_3d_engineering',2020,#367);
#367=APPLICATION_CONTEXT('managed model based 3d engineering');
ENDSEC;
END-ISO-10303-21;
